<svg id="Capa_1" data-name="Capa 1" xmlns="http://www.w3.org/2000/svg" viewBox="0 0 541.88 81.57"><defs><style>.cls-1{fill:#fff;}</style></defs><path class="cls-1" d="M42.25,7.19a2.58,2.58,0,0,1,1.61-.34,5.88,5.88,0,0,1,1.86.51A14.71,14.71,0,0,1,49.19,10,5.61,5.61,0,0,1,51,13.28a2.41,2.41,0,0,0-.38.68c-.14.34-.27.65-.38.93-.28.62-.56,1.21-.84,1.78a5.41,5.41,0,0,0-.43.93c-.11,0-.24.12-.38.38s-.29.55-.46.88a4.7,4.7,0,0,0-.38,1,3.21,3.21,0,0,0-.13.76.14.14,0,0,0-.13.09.14.14,0,0,1-.12.08.76.76,0,0,0-.43.68c0,.33.14.42.43.25.11,0,.08.08-.09.25a2.29,2.29,0,0,1-.25.43l-.09.08s0-.11.09-.34q-.35,0-.42.21a.32.32,0,0,0,.08.38.24.24,0,0,0-.17.09h.09a.53.53,0,0,0-.34.51c0,.22.17.25.5.08-.11.12-.16.2-.16.26-.17.16-.32.19-.43.08v.68c-.11,0-.22.08-.34.25l-.33.51c-.34.62-.48,1-.43,1.14s.26,0,.59-.47l-.33.85c-.12.28-.22.51-.3.68s-.13.22-.13.17c-.17-.06-.25.11-.25.5-.28-.11-.42,0-.42.34v.85a.59.59,0,0,1-.43.59,1.48,1.48,0,0,0-.46.93c0,.34.07.42.29.25a2.55,2.55,0,0,1-.25.76,6,6,0,0,1-.42.85l.08-.17c.12-.22.12-.35,0-.38a.56.56,0,0,0-.42.13.52.52,0,0,0-.21.55c0,.25.15.38.38.38v.25c-.06.17.17.28.68.34s1.55.14,3.13.25c1.74.12,2.86.16,3.34.13s.77-.15.88-.38c.23-.39.29-.65.17-.76v.08a2,2,0,0,1,.26-1,3.12,3.12,0,0,1,.25-.68,1.83,1.83,0,0,0,.25-.55,4.31,4.31,0,0,1,.17-.46l.17-.34a7.06,7.06,0,0,1,.55-1.57c.37-.87.81-1.93,1.31-3.17s1-2.52,1.61-3.85,1.1-2.55,1.61-3.67q1.19-2.62,2.58-5.25a52.41,52.41,0,0,1,2.79-4.69,19.35,19.35,0,0,1,2.66-3.26,2.73,2.73,0,0,1,2.2-1,10.32,10.32,0,0,1,2,.84,17.46,17.46,0,0,1,2.58,1.65,16.55,16.55,0,0,1,2.24,2.07,3.17,3.17,0,0,1,1,2,3.23,3.23,0,0,1-.38,1.22c-.25.54-.52,1.15-.8,1.82-.12.29-.27.64-.47,1.06s-.35.78-.46,1.06c-.17.45-.37.92-.59,1.39L71.77,18a1.35,1.35,0,0,0-.3.51c-.08.22-.07.28,0,.17a13.94,13.94,0,0,0-.67,1.35,3.7,3.7,0,0,0-.26.68A10.74,10.74,0,0,1,70,22c-.36.79-.8,1.72-1.31,2.79-.11.34-.43,1.12-1,2.33S66.61,29.63,65.93,31l-2.2,5.25a19.62,19.62,0,0,1,3.94,1.31c1,.48,1.48.89,1.48,1.22a5.17,5.17,0,0,1-.43,1.44,21.87,21.87,0,0,1-1,2.24,20,20,0,0,1-1.23,2.08q-.63.93-1,.93L63.27,45c-.54-.14-1.23-.36-2.07-.64L61,44.24l-1.19,4.82a5.35,5.35,0,0,0-.25.84,3.37,3.37,0,0,0-.08.68,4.71,4.71,0,0,1-.17.8c-.12.43-.23.86-.34,1.31-.4,1.36-.79,3.05-1.19,5.08s-.74,4.07-1.05,6.13-.58,4-.81,5.75-.36,3.09-.42,3.93c-.06.68-.59,1-1.61.81a12.32,12.32,0,0,1-3.42-1.1,24.66,24.66,0,0,1-3.68-2.12A8.44,8.44,0,0,1,44.45,69a10.73,10.73,0,0,1-.17-2.37c0-1.18,0-2.41.13-3.68a33.33,33.33,0,0,1,.38-3.42Q45,58,45.3,58a.29.29,0,0,0,.33-.33c0-.29-.16-.34-.5-.17a1,1,0,0,0,.12-.43c0-.22.07-.48.13-.76l.25-1.69a1.16,1.16,0,0,1,.13-.34q.14-.25.21-.42a.64.64,0,0,0,.21-.34c0-.11,0-.17-.12-.17s-.17-.2-.17-.59,0-.51.17-.51.28-.14.17-.42a.37.37,0,0,1,.08-.42h-.08a.44.44,0,0,0,.21-.34,2.45,2.45,0,0,0,0-.43q-.25-.42,0-.42c.22,0,.31-.28.25-.84-.11-.34-.14-.51-.08-.51a.22.22,0,0,0,.3-.09.7.7,0,0,0,.12-.42c0-.84.06-1.21.17-1.1.17.28.28.36.34.21a1.77,1.77,0,0,0-.08-.89v-.84c.11,0,.18-.08.21-.25a.75.75,0,0,0-.05-.43v-.25c0-.11.06-.11.17,0a2.35,2.35,0,0,0,.09-.59.57.57,0,0,1,.17-.43.53.53,0,0,0,.17-.38.37.37,0,0,0-.09-.29c-.05-.06-.31-.09-.76-.09H43.14a11.58,11.58,0,0,0-2.16.17l-1.43.17-.85,3.3c-.45,1.75-.85,3.29-1.18,4.61s-.63,2.59-.85,3.8-.44,2.44-.63,3.68-.41,2.63-.64,4.15q-.59,4.14-1.35,5a7,7,0,0,1-2.16-.64A18.16,18.16,0,0,1,29,65.8a20.26,20.26,0,0,1-3.21-2.36,5,5,0,0,1-1.52-2.12A7.34,7.34,0,0,1,24,59.5a22.12,22.12,0,0,1,.12-2.91c.06-1.13.1-2,.13-2.58s0-1,0-1.27,0-.41.09-.47.25-.31.25-.93a12.83,12.83,0,0,1,.21-2.15c.14-.82.27-1.46.38-1.91a4.23,4.23,0,0,0,.26-1,7.66,7.66,0,0,0-.85.21c-.51.14-1.16.34-1.95.59s-1.67.55-2.66.89-2,.7-2.92,1.1l-4.65,1.86-1.35.76-1.27.76h.08l-.67.34c-.12.11-.21.16-.3.13a3.24,3.24,0,0,1-.63-.72,6.59,6.59,0,0,1-1.19-2.37,10.24,10.24,0,0,1-.42-2.88,9.69,9.69,0,0,1,.47-3,5.3,5.3,0,0,1,1.48-2.41,8,8,0,0,1,.8-.68,9.33,9.33,0,0,1,1.06-.71l.88-.51c.26-.14.38-.18.38-.13,0,.23.23.17.68-.17.28-.28.51-.39.68-.34s.39,0,.51-.25.36-.34.76-.34c.56,0,.84-.08.84-.25s.13-.11.38-.17.55-.11.89-.17Q18,37.65,18,37.39c0-.12.11-.17.34-.17a14.87,14.87,0,0,0,2.15-.34l3.47-.72c1.21-.25,2.3-.49,3.26-.72A7.9,7.9,0,0,0,28.72,35a3.43,3.43,0,0,0,.34-.76,10.09,10.09,0,0,0,.42-1.44c.28-.79.71-1.9,1.27-3.34s1.18-3,1.86-4.57,1.35-3.2,2-4.78,1.27-2.87,1.78-3.89.95-1.84,1.52-2.83,1.11-1.9,1.65-2.75,1-1.59,1.52-2.24A5,5,0,0,1,42.25,7.19ZM8.42,49.65a1.82,1.82,0,0,0,0-.38.76.76,0,0,0-.21-.38c-.06.28-.14.31-.26.08-.28-.33-.48-.43-.59-.29s-.08.43.09.89a1.09,1.09,0,0,0,.5.38.37.37,0,0,0,.51-.22Zm11.84-5.33c0-.11-.08-.15-.25-.13a4.77,4.77,0,0,0-.51.13q-.42.26-.42.42c0,.29.22.26.67-.08Zm.76.09c.17,0,.26-.12.26-.34a.3.3,0,0,0-.34-.34.41.41,0,0,0-.3.13c-.08.08-.07.18,0,.29v-.08s.06.14.17.25A.26.26,0,0,0,21,44.41Zm1.53-.51c.16,0,.25-.11.25-.34s-.14-.34-.42-.34a.28.28,0,0,0-.26.13c-.05.08,0,.18.09.3v-.09C22.26,43.79,22.38,43.9,22.55,43.9Zm1.52-.42a.15.15,0,0,0,.12,0,.22.22,0,0,1,.13,0,.27.27,0,0,0,.17-.08.33.33,0,0,0-.3-.38.43.43,0,0,0-.46.29C23.62,43.51,23.73,43.59,24.07,43.48Zm.84,14.71c.12-.11.09-.39-.08-.84a1.23,1.23,0,0,0-.17.8C24.72,58.29,24.8,58.31,24.91,58.19Zm.09-15c.34,0,.51-.06.51-.17s-.12-.27-.34-.3-.37,0-.43.13S24.72,43.14,25,43.14ZM25.08,51c0,.51.12.65.34.43s.11-.28,0-.51Zm2.29-4.73c.05-.4,0-.57-.26-.51s-.48.8-.76,2.07-.52,2.72-.72,4.36-.34,3.24-.42,4.82a18.27,18.27,0,0,0,0,3.38c.17.62.31.75.43.38a20.7,20.7,0,0,0,.25-3.34c0-1,0-1.83,0-2.62a11.6,11.6,0,0,1,.13-1.61,8,8,0,0,0,.12-.89c0-.3.05-.6.05-.88,0-.62.11-1,.34-1.1a2.64,2.64,0,0,0,.16-1.27v-.72q0-.3.09-.3c.22,0,.34-.22.34-.67A3.21,3.21,0,0,1,27.37,46.27ZM25.34,62a2.6,2.6,0,0,0,.59.34c.05,0,.08-.15.08-.43s-.17-.25-.5-.25Zm.59-19.62a.53.53,0,0,0-.34.5c0,.23.11.29.34.17a.45.45,0,0,0,.34-.5c0-.17,0-.26-.09-.26A.63.63,0,0,0,25.93,42.38Zm0,5.83c.05-.05,0-.31-.09-.76-.16.4-.22.65-.16.76S25.81,48.33,25.93,48.21Zm2.45,16c.23-.34.31-.51.26-.51s-.32-.09-.6.08-.39.31-.34.43C27.87,64.48,28.1,64.48,28.38,64.2Zm1,.34c0-.23-.23-.34-.68-.34a3,3,0,0,0,.42.72c.06,0,.14-.08.26-.3Zm0-4.06c.05-.06,0-.31-.09-.77-.17.4-.22.65-.17.77S29.28,60.59,29.4,60.48Zm.5,4.31c.23,0,.29-.14.17-.42A.29.29,0,0,1,30,64.2.22.22,0,0,0,29.9,64l-.08-.09c-.17,0-.25.14-.25.43S29.68,64.79,29.9,64.79ZM31.26,33c0-.23.11-.44.17-.64s.11-.38.17-.55a2.6,2.6,0,0,0,.08-.5q-.34-.35-.42-.09c-.06.17-.14.54-.26,1.1a1.45,1.45,0,0,1-.67,1.1,1,1,0,0,0-.17.72c0,.37.08.55.25.55S30.86,34.12,31.26,33Zm1.27-4.06h-.17l-.34.51v-.09a.69.69,0,0,1-.09.34,1.41,1.41,0,0,0-.17.59.17.17,0,0,1,0,.13.17.17,0,0,0,0,.13l-.08.67h.16l.34-.67.34-1.1Zm.59-1.35a3.68,3.68,0,0,0,.21-1s-.18.16-.47.55a2.25,2.25,0,0,0-.42,1c0,.22-.08.25-.25.08-.29,0-.34.17-.17.51a.83.83,0,0,0,.59.17c.28,0,.42-.09.42-.25v-.34a1.75,1.75,0,0,1,0-.43A1.86,1.86,0,0,0,33.12,27.58Zm1-2.2c0-.23.06-.34.17-.34s.11-.24.17-.38a1,1,0,0,0,.09-.38c0-.17.08-.23.25-.17a1.17,1.17,0,0,1,.25-.85c.23-.34.2-.51-.08-.51a.3.3,0,0,0-.34.34c0,.17-.08.17-.25,0s-.48,0-.6.43,0,.56.17.5.13.09,0,.43a4.62,4.62,0,0,1-.55,1.18,2.46,2.46,0,0,0-.17.76c-.46,0-.68.06-.68.17s.17.37.51.42S33.91,26.56,34.13,25.38Zm-1.1,0c-.28.79-.17.84.34.17a1.19,1.19,0,0,0,.42-.77c0-.28-.09-.35-.29-.21A1.47,1.47,0,0,0,33,25.38Zm1.61,39.16c.17-.17.11-.34-.17-.51h.09c-.23-.23-.34-.12-.34.34,0,.73.14.76.42.08ZM39,14.3c.12-.28.06-.45-.17-.51s-.45.08-.67.42a3.43,3.43,0,0,1-.34.76l-.09.17c.29.12.34.26.17.43a.74.74,0,0,0-.67.76c.11.22,0,.28-.34.17q.42.93-.09.93c-.28,0-.39.19-.33.59s.08.42-.09.42a.45.45,0,0,0-.51.51c0,.17.17.25.51.25h.17v.09a.57.57,0,0,1-.42.17c-.29,0-.52.19-.72.59a1.41,1.41,0,0,0-.13,1.1.24.24,0,0,0,.09.17c0,.05,0,.08.08.08a.6.6,0,0,0-.72.17,1.12,1.12,0,0,0-.29.76c0,.29,0,.42.08.42s.17-.11.34-.33q.07.42.51,0a1,1,0,0,0,.33-.68s0-.08.17-.25c.23-.34.2-.51-.08-.51-.11,0-.17-.1-.17-.3a.52.52,0,0,1,.25-.46.07.07,0,0,0-.08.08v.17c-.17.74,0,.62.59-.34l.38-.76a1.65,1.65,0,0,0,.21-.67l.51-.85.3-.63a.62.62,0,0,0,0-.47,2.77,2.77,0,0,1,.42-.85c.68-.67.71-1,.09-1h-.09c.06-.17.14-.25.26-.25C38.62,14.81,38.78,14.69,39,14.3ZM34.89,41.11c.29-.28.37-.48.26-.59s-.27-.09-.47.08a.68.68,0,0,0-.29.51C34.39,41.39,34.56,41.39,34.89,41.11Zm0,21.23c0-.34,0-.51-.17-.51s-.33.17-.33.51.08.42.25.42l.08-.09Zm0-.68v-.25a1.27,1.27,0,0,1,0-.34,2.09,2.09,0,0,0,0-.34c0-1.18-.14-1.3-.42-.34a1.35,1.35,0,0,0-.05.89c.09.31.19.46.3.46Zm.43-2.88c.17-1.07,0-1.46-.34-1.18a.89.89,0,0,0-.13.46,6.62,6.62,0,0,0,0,.77v.67c0,.2,0,.3.08.3C35.18,59.8,35.32,59.46,35.32,58.78Zm.33-2.11c.29-.11.43-.18.43-.21s-.14,0-.43,0a1.2,1.2,0,0,0-.33.25.54.54,0,0,0-.17.42c-.12.4,0,.51.25.34s.34-.31.17-.59l.17-.17Zm.09-16c-.62.33-.62.5,0,.5a.92.92,0,0,0,.68-.25c.22-.34.26-.54.12-.59S36.13,40.4,35.74,40.69Zm.17,15.13c.05-.17,0-.28-.09-.33a.26.26,0,0,0-.33.08.54.54,0,0,0-.17.42c0,.62.19.6.59-.08Zm.08-1.6c.17,0,.26-.14.26-.43s-.06-.42-.17-.42-.23.14-.34.42S35.65,54.22,36,54.22Zm.76-2.29c0-.67-.07-1-.21-1s-.24.35-.29,1a2.88,2.88,0,0,1-.17.85q-.34.67-.3.72s.21-.1.55-.38A1.61,1.61,0,0,0,36.75,51.93Zm1.61-11.24c.62-.34.54-.46-.25-.34a3.16,3.16,0,0,0-.68.08c-.23.06-.34.14-.34.26s.14.16.43.16A2.28,2.28,0,0,0,38.36,40.69Zm.76-27.75a1,1,0,0,0-.67.34c-.12.17,0,.26.42.26a.61.61,0,0,0,.59-.34v.08C39.69,13.06,39.57,12.94,39.12,12.94Zm.26-.16c.22,0,.5-.31.84-.94a4.77,4.77,0,0,0,.42-1.31c.06-.36,0-.55-.08-.55a1,1,0,0,0-.34.77.53.53,0,0,1-.34.5c-.45.23-.5.43-.17.59.06.06,0,.12-.08.17-.45.12-.71.27-.76.47S39,12.78,39.38,12.78Zm-.26,28c.23.11.35.16.38.13a1.14,1.14,0,0,0,0-.47c0-.28-.12-.42-.34-.42a.27.27,0,0,0-.3.25A.58.58,0,0,0,39.12,40.77Zm.85-.42a.52.52,0,0,0,.42.34,2.15,2.15,0,0,0,.72,0,2.71,2.71,0,0,0,.68-.17.42.42,0,0,0,.29-.38c0-.28-.36-.4-1.1-.34a3.7,3.7,0,0,0-1,.08C39.87,40,39.85,40.12,40,40.35Zm1.1-3.22c-.4.29-.57.44-.51.47a4.72,4.72,0,0,0,.93,0A6.42,6.42,0,0,0,43,37.47c.57-.11.68-.28.34-.51a2,2,0,0,0-1.14-.21A2,2,0,0,0,41.07,37.13Zm2.7-2q.09-.08-.12-.21a1.22,1.22,0,0,0-.6-.12,6.56,6.56,0,0,0-.76,0,1.47,1.47,0,0,0-.63.21h.08c-.45.22-.19.34.77.34A2.68,2.68,0,0,0,43.77,35.1Zm-.25,5.33c.28,0,.42,0,.42-.08s-.14-.23-.42-.51c-.45-.34-.79-.48-1-.42s-.15.25.25.59a1.82,1.82,0,0,0,.38.29A.72.72,0,0,0,43.52,40.43Zm3.38-.25c.34-.34.45-.54.34-.59a6.85,6.85,0,0,0-1.61-.09,5.1,5.1,0,0,0-1.94.25c-.06.12.45.2,1.52.26a3.76,3.76,0,0,0,.64.13l.46,0-.08.08h.08c-.22.12-.34.21-.34.3s.06.13.17.13A.93.93,0,0,0,46.9,40.18Zm-2.28-5.41c-.45,0-.68.11-.68.33s.2.34.59.34a.91.91,0,0,0,.68-.25C45.49,34.91,45.3,34.77,44.62,34.77Zm.25,5.92c.29,0,.45,0,.51-.13s-.06-.18-.34-.3h.09A1.46,1.46,0,0,0,44.2,40c-.29,0-.31.18-.09.46A1,1,0,0,0,44.87,40.69Zm0-14c-.34.68-.25.76.26.25a.48.48,0,0,0,.17-.33v-.26C45.18,26.34,45,26.45,44.87,26.73Zm.43,36.62a5.28,5.28,0,0,0,0-1.86c-.12-.79-.19-1-.22-.76s0,.84,0,1.69,0,1.58,0,1.86S45.18,64.25,45.3,63.35Zm.5-6.93a1,1,0,0,0-.08-.68,3.32,3.32,0,0,0-.17.63c0,.09.06.13.17.13ZM45.89,37c-.23.23-.31.36-.26.38a2.51,2.51,0,0,0,.68,0,2,2,0,0,0,.55,0c.09,0,0-.15-.21-.38a2.28,2.28,0,0,0-.38-.21C46.18,36.72,46.06,36.79,45.89,37ZM45.8,25.63c-.11.11-.17.2-.17.25S45.69,25.74,45.8,25.63ZM47,34.77c-.68,0-1,0-1.06.08s.18.14.64.25a3.57,3.57,0,0,0,1,.17c.31,0,.47-.08.47-.25S47.72,34.77,47,34.77Zm.59-14.13v0Zm.68,16.49c0-.22-.23-.34-.68-.34a2.57,2.57,0,0,0,.42.72c.06,0,.14-.07.26-.29Zm-.34,3.47a.51.51,0,0,0,.42,0c.11-.05.11-.14,0-.25s-.31-.12-.59,0Zm1,18.35a19.09,19.09,0,0,0-.25,2c-.06.74-.08,1.27-.08,1.61v1.27a7.87,7.87,0,0,0,0,.84c0,.29,0,.57,0,.85,0,1.35.17,1.83.34,1.44a9.62,9.62,0,0,0,.25-2.88q.09-6.84.42-7c.23-.11.31-.34.26-.67s-.26-.54-.42-.6-.26.09-.26.43c0-.06,0,0,0,.34s-.07.59-.13.93Zm.17-21.9c-.11.22,0,.34.26.34s.5-.12.5-.34-.11-.34-.33-.34a.68.68,0,0,0-.43.25Zm.85,18c.11-.22.15-.35.13-.38s-.19,0-.47.13a.57.57,0,0,0-.17.42c0,.29.06.41.17.38S49.83,55.4,50,55.06Zm1.18-41.61H51v-.17C51.08,13.06,51.13,13.11,51.13,13.45Zm1.61,50.32c0,.46.08.6.25.43h-.08c.22-.06.28-.26.17-.6Zm.51-2.7c0,.45.08.59.25.42s.11-.31,0-.59Zm1.35-3.89a2.63,2.63,0,0,0-.34-.64c-.11-.14-.17-.18-.17-.12s-.05.41.17.88.4.72.51.72v-.25A3.87,3.87,0,0,0,54.6,57.18Zm.68,7.19c-.12-.29-.19-.37-.22-.26a3.64,3.64,0,0,0,0,.59,3.69,3.69,0,0,0,0,.6c0,.11.1,0,.22-.26A.72.72,0,0,0,55.28,64.37Zm0-12.44c-.12.23-.13.36-.05.38s.22,0,.38-.21h-.08c.11-.05.14,0,.08.17-.11.34,0,.51.17.51s.4-.2.51-.59.11-.37.34-.26l.08-.17c-.28-.45-.5-.5-.67-.16-.12.11-.2.16-.26.16a.64.64,0,0,0-.42.09Zm0,11.34c-.12.28-.13.45-.05.5s.19,0,.3-.08.11-.28,0-.51Zm.5-13.54c-.33.23-.39.4-.17.51v-.08c.29.67.43.65.43-.09a.75.75,0,0,0-.09-.34c-.05-.11-.14-.11-.25,0ZM55.7,62.17c.28-.17.28-.4,0-.68-.17.39-.23.63-.17.72s.14.07.25,0Zm.59-3.64c.23,0,.34-.17.34-.51-.06,0-.09,0-.09-.08v-.17a.27.27,0,0,1-.08-.17c-.11,0-.23.14-.34.42S56.07,58.53,56.29,58.53Zm.25-1.27c.23,0,.34-.22.34-.67s0-.53-.08-.55-.17.07-.34.29C56,57,56,57.26,56.54,57.26Zm.26-6.6A1.67,1.67,0,0,0,57,49.9c-.12-.22-.23-.28-.34-.17a1.3,1.3,0,0,0-.25.68C56.21,51.15,56.35,51.23,56.8,50.66Zm-.26-2.19c-.28-.12-.31,0-.08.42s.65.25,1.1-.09c.28-.16.28-.39,0-.67s-.56-.28-.68.17C56.77,48.47,56.66,48.52,56.54,48.47Zm1.27-2.12-.17.17c-.56.68-.81,1.13-.76,1.35s.4.12,1-.33a4.33,4.33,0,0,1,.25-.6.22.22,0,0,0,.09-.17c-.06,0-.08,0-.05-.12a.83.83,0,0,1,.22-.3c.39-.56.56-.87.5-.93s-.25.11-.59.51h.09c-.23.17-.15-.14.25-.93.34-.56.42-1,.25-1.27s-.42,0-.59.59a2.9,2.9,0,0,1-.21.47c-.08.14-.16.27-.21.38a.78.78,0,0,0-.42.63c-.06.31.05.47.33.47Zm2-5.24c-.28-.11-.42-.06-.42.17s.17.42.51.42a.4.4,0,0,0,0-.59ZM59.76,19.2a1.54,1.54,0,0,0-.25.76.59.59,0,0,0,0,.26c0,.05.1,0,.21-.09a2.79,2.79,0,0,0,.34-.93Zm2.11,15.9c-.28.29-.38.5-.29.64s.29.12.63-.05a.59.59,0,0,0,.34-.12c.11-.09.11-.18,0-.3s0-.07,0-.21a1.86,1.86,0,0,1,.3-.38c.39-.79.51-1.27.34-1.44s-.26,0-.43.26c-.11.11-.19.17-.25.17l.08.08c0-.06-.05,0-.16.08a.57.57,0,0,0-.17.43A1.23,1.23,0,0,1,61.87,35.1Zm-.17-20c0,.51.12.65.34.42s.11-.31,0-.59Zm1.7,27.15c.11-.06.12-.13,0-.21a1.72,1.72,0,0,0-.55-.3c-.85-.22-1.21-.2-1.1.08a.85.85,0,0,0,.59.34c.34,0,.51.06.51.17s.31.2.59-.08Zm-.51-9.64c-.28-.12-.42-.06-.42.16s.25.34.76.34a1,1,0,0,0,.59,0c.11,0,.11-.14,0-.25s0-.42.25-.93c.17-.68.2-1.07.09-1.18q-.18.67-1,.33a1.23,1.23,0,0,1,.26.55c.05.26-.06.36-.34.3a.53.53,0,0,0-.43,0c-.11.06-.11.14,0,.25v-.08c.17.22.31.31.43.25s.17,0,.17.09C63.23,32.62,63.11,32.68,62.89,32.57Zm.67-2.37a.4.4,0,0,0-.29.12c-.09.09-.07.19,0,.3v-.08c0,.05.06.14.17.25a.22.22,0,0,0,.17.08c.17,0,.25-.11.25-.33A.3.3,0,0,0,63.56,30.2Zm.26,12.18c-.12.17-.13.27,0,.29s.18,0,.29-.12a.15.15,0,0,1,.17.17c.23,0,.33-.06.3-.17a1.4,1.4,0,0,0-.13-.34.37.37,0,0,0-.59.08Zm.59-13.7c-.34.11-.52.22-.55.33s.13.17.47.17a.45.45,0,0,0,.33-.17c.12-.28.16-.43.13-.46S64.64,28.56,64.41,28.68Zm.42-1.19q-.33,0,0,.93a.51.51,0,0,1,.09.51,1.76,1.76,0,0,1-.26.59c-.5,1.13-.48,1.41.09.85h-.09c.29-.06.37-.31.26-.76h.17l.42-1c.34-.62.48-1,.42-1.1s-.22,0-.5.26a1.34,1.34,0,0,1-.22-.43.4.4,0,0,0-.21-.25l-.08.08C64.92,27.38,64.89,27.49,64.83,27.49Zm.34-19.62c-.11.28,0,.37.26.25l.5-.17a.35.35,0,0,0-.34-.38A.36.36,0,0,0,65.17,7.87ZM66,25.72c-.12-.12-.27,0-.47.25a1.42,1.42,0,0,0-.29.84c0,.23,0,.32.17.26a1,1,0,0,0,.33-.51A2,2,0,0,0,66,25.8Zm1.52-2.29q.17.42-.09.51a.69.69,0,0,0-.16.51,1.87,1.87,0,0,1-.68,1.1l-.42.67a3.51,3.51,0,0,0-.34.68c-.17.39-.2.59-.09.59s.31-.17.6-.51.5-.77,1-1.65,1-1.87,1.61-3c1.24-2.7,1.74-4.06,1.52-4.06a.37.37,0,0,0-.42.43,2.35,2.35,0,0,1-.13.55,6.64,6.64,0,0,1-.3.76c-.11.25-.21.46-.29.63s-.16.23-.21.17-.24,0-.38.25a5,5,0,0,0-.38,1.1,3,3,0,0,1-.34,1c-.12.14-.23.15-.34,0ZM66.1,25c-.28,0-.31.23-.08.68.11.11.24,0,.38-.25a6,6,0,0,0,.38-1.1,2.77,2.77,0,0,0,.13-.68,4.29,4.29,0,0,0-.64.51c-.45.45-.48.73-.08.84Zm.17-18.6c-.34.34-.45.65-.34.93A1.14,1.14,0,0,0,66.27,7a1.49,1.49,0,0,1,.25-.21.66.66,0,0,0,.17-.12c.23-.34.33-.52.3-.55s-.24,0-.63.21Zm1.78,15.31c-.34.11-.52.22-.55.33s.1.17.38.17A.54.54,0,0,0,68.3,22c.11-.28.16-.43.13-.46S68.27,21.54,68.05,21.66Zm3.38-5.08c-.23,0-.34,0-.34.17a.3.3,0,0,0,.34.34c.22,0,.34-.09.34-.26l-.26-.25Zm.42-3.89c0,.23.09.34.26.34s.42-.06.42-.17c0,.06-.14-.06-.42-.34Z" transform="translate(-6.73 -3.54)"/><path class="cls-1" d="M64.41,53.46a9.49,9.49,0,0,1-.25-2.54,30.53,30.53,0,0,1,.16-3.13A18,18,0,0,1,64.83,45c.29-1.19.57-2.27.85-3.26a21.79,21.79,0,0,1,1.06-2.92,22.43,22.43,0,0,1,1.56-2.91c.62-1,1.35-2.1,2.2-3.34,0-.06,0-.14.17-.26A6.72,6.72,0,0,1,71.77,31L73,29.52a10.63,10.63,0,0,1,.85-.93,13.57,13.57,0,0,1,1.35-1.18c.51-.4,1-.78,1.57-1.14a8.36,8.36,0,0,1,1.39-.81,10.57,10.57,0,0,1,2.54-1,11.25,11.25,0,0,1,2.53-.26,12.56,12.56,0,0,1,3.81.64,6,6,0,0,1,3.38,3.25,9.83,9.83,0,0,0,.51-1.14c.11-.31.23-.6.34-.89a2,2,0,0,1,.42-.93,3.74,3.74,0,0,1,.76-.72,1.58,1.58,0,0,1,1-.12,6.48,6.48,0,0,1,1.65.34c.76.22,1.53.49,2.32.8s1.54.65,2.25,1a4.75,4.75,0,0,1,1.39,1,3.31,3.31,0,0,1,1.1,2.36,11.28,11.28,0,0,1-.85,3.51c-.56,1.56-1.49,3.88-2.79,7-.33.79-.65,1.58-.93,2.37s-.53,1.54-.76,2.24-.41,1.3-.55,1.78-.24.8-.29,1l-.09.34H96l.51-.51a10.7,10.7,0,0,1,1-.85l1.06-.8a5.24,5.24,0,0,0,.67-.55c.79-.62,1.47-1.18,2-1.69s1.24-1.15,2-1.94c.68-.57,1.2-1,1.57-1.36a7,7,0,0,1,.93-.76,2.87,2.87,0,0,1,.63-.34,1.81,1.81,0,0,1,.51-.08,2.06,2.06,0,0,1,1.27.29,1.19,1.19,0,0,1,.25,1.06,2.59,2.59,0,0,1-.17.85c-.11.34-.24.67-.38,1a8.38,8.38,0,0,1-.42.89,2.76,2.76,0,0,1-.3.47h.09l-.42.42a3.88,3.88,0,0,0-.43.51,10.47,10.47,0,0,1-.76,1.22,9,9,0,0,1-.93,1.14,2.59,2.59,0,0,0-.63.72,1.42,1.42,0,0,0-.21.55c0,.12-.12.23-.34.34a1.29,1.29,0,0,0-.34.25.52.52,0,0,0-.17.34c0,.17-.06.26-.17.26-.28,0-.42.22-.42.67a.52.52,0,0,1-.13.34,1.5,1.5,0,0,1-.21.25h.08c-.28.17-.33.34-.16.51a.08.08,0,0,1-.09.09c-.23,0-.37.17-.42.5,0,.17-.06.26-.17.26s-.31.14-.42.42-.09.42-.26.25a.31.31,0,0,0-.34.34c0,.17,0,.26-.17.26s-.25.17-.08.5c0,.06,0,.09-.08.09a.25.25,0,0,0-.17.08c-.4.06-.54.23-.43.51s-.25.52-.76,1.06-1.07,1.1-1.69,1.69-1.24,1.16-1.86,1.69A11.57,11.57,0,0,1,93.76,60a4.51,4.51,0,0,1-3.26.29,8.3,8.3,0,0,1-3.09-1.65,13,13,0,0,1-2.49-2.7,8.8,8.8,0,0,1-1.4-3,7.58,7.58,0,0,1-.25-3.47,5,5,0,0,1,0-.72,3.65,3.65,0,0,0,0-.55v-.59h-.17a.27.27,0,0,0-.08.17V48c-.06.45-.16,1.08-.3,1.9a7.33,7.33,0,0,1-.88,2.41,25.82,25.82,0,0,1-3,5.37,20.38,20.38,0,0,1-2,2.24,3.87,3.87,0,0,1-2.28.51A10,10,0,0,1,71.77,60a14.06,14.06,0,0,1-4.57-2.88A10.6,10.6,0,0,1,64.41,53.46Zm3-6.94a.3.3,0,0,0-.34.34c0,.23.09.34.25.34l.17-.17C67.62,46.69,67.59,46.52,67.37,46.52Zm.34-1.1c-.28-.28-.43-.25-.43.09a.58.58,0,0,0,.22.5.25.25,0,0,0,.38,0C68,45.9,67.93,45.7,67.71,45.42Zm.34,8a.79.79,0,0,0,.08-.26c0-.05-.08-.08-.25-.08a.3.3,0,0,0-.34.34c0,.22.08.33.25.33l.26-.25Zm.08-9.73a.3.3,0,0,0-.34.34c0,.22.06.34.17.34s.23-.12.34-.34v.08c.11-.11.14-.21.08-.29A.27.27,0,0,0,68.13,43.73ZM76,46.52a8.62,8.62,0,0,0-.76,2.33c-.12.7,0,.88.25.55a8.51,8.51,0,0,0,1-2.29c.23-.62.41-1.12.55-1.52s.19-.62.13-.68a.22.22,0,0,0-.34,0A10.89,10.89,0,0,0,76,46.52Zm.59-2.62a.22.22,0,0,1,0,.13.17.17,0,0,0,0,.12c0,.23.06.31.17.26A1,1,0,0,0,77,43.9V44c.28-.39.31-.59.09-.59s-.34.14-.51.42Zm1.1,5.83a.67.67,0,0,0,.25-.46c0-.14-.06-.21-.17-.21l-.51.51a.4.4,0,0,1-.08.21.35.35,0,0,0-.08.21V49.9c-.29.29-.32.43-.09.43S77.46,50.13,77.69,49.73ZM77.43,44a.56.56,0,0,0-.33.51c0,.28.05.41.16.38s.23-.21.34-.55S77.66,43.87,77.43,44Zm.09-.59a2.4,2.4,0,0,0-.3.68,3.86,3.86,0,0,0,.55-.51c.23-.22.28-.42.17-.59S77.69,43,77.52,43.39Zm.93,1.52L78,46.06a2.53,2.53,0,0,0-.17.54c0,.12.11.09.34-.08s.5-.39.84-.68.69-.6,1.06-1,.69-.72,1-1.06l1.27-1.69.76-.84c.23-.34.51-.82.85-1.44a4.29,4.29,0,0,0,.33-.38.48.48,0,0,1,.34-.21A2.52,2.52,0,0,1,85.3,38c.51-.62.68-1,.51-1.1,0,0,.11-.07.17-.21a1,1,0,0,1,.25-.38c.68-.85.85-1.3.51-1.36s-1.13.37-2.37,1.27a21.93,21.93,0,0,0-3.26,3.85A24.29,24.29,0,0,0,78.45,44.91Zm-.25-3.29c-.23-.46-.34-.4-.34.16s.11.65.34.43S78.31,41.9,78.2,41.62Zm4.65-13.37c-.46.12-.68.23-.68.34s.22.17.68.17a.91.91,0,0,0,.84-.42c.11-.23.1-.35,0-.38A1.52,1.52,0,0,0,82.85,28.25ZM83.69,48c.06-.23,0-.34-.17-.34s-.45.11-.5.34v-.09c-.12.12-.16.22-.13.3s.13.13.29.13a.74.74,0,0,0,.51-.26Zm.43-1c.11-.39,0-.59-.17-.59l-.34.59v-.08c-.34.45-.31.68.08.68C83.86,47.54,84,47.34,84.12,46.94Zm1.6,3.64c-.34,0-.37.25-.08.76v-.08c.11.5.28.65.51.42a2,2,0,0,0,.12-.34.2.2,0,0,0-.12-.25H86C86.15,50.75,86.06,50.58,85.72,50.58Zm-.08,3.13a1.1,1.1,0,0,0,.38.47c.14.08.27,0,.38-.13s-.11-.28-.34-.51-.45-.32-.51-.3S85.52,53.43,85.64,53.71ZM86.23,32a.76.76,0,0,0-.25-.08c-.06,0-.09.08-.09.25a.3.3,0,0,0,.34.34c.22,0,.34-.08.34-.25L86.31,32ZM85.89,47c0,.17.16.25.47.25a.63.63,0,0,0,.63-.34c0-.11,0-.38,0-.8a10.14,10.14,0,0,1,.21-1.4,6.74,6.74,0,0,0,.17-1.39c0-.37,0-.49-.17-.38l-.33.68L86.48,45a3.34,3.34,0,0,1,0,.63c0,.14.07.27.3.38h-.17c.11.06.13.13,0,.22a1.14,1.14,0,0,1-.3.21Zm.68,1c.22-.45.11-.56-.34-.34a1.28,1.28,0,0,0-.17.51,7.72,7.72,0,0,0-.13.93c0,.34,0,.64,0,.89s0,.38.09.38.14-.08.25-.25a1.24,1.24,0,0,0,.17-.68A5.57,5.57,0,0,1,86.57,48Zm1.18-5.24c.17-.17.14-.45-.08-.85C87.5,42.74,87.53,43,87.75,42.8Zm.26-2c-.12-.11-.22-.13-.3,0a.41.41,0,0,0-.13.29c0,.23.09.34.26.34a.54.54,0,0,0,.42-.17.29.29,0,0,0-.08-.17l-.26-.25ZM89,39c-.06,0-.08,0-.08,0s0,0-.09,0c-.22.11-.34.22-.34.34-.05.28,0,.43,0,.46s.23-.18.46-.63Zm1.27-10.57c-.11.12-.2.17-.25.17a1,1,0,0,0-.34,1Zm.59,20.81c-.06,0-.14.2-.25.59s-.23.84-.34,1.35A14.57,14.57,0,0,0,90,52.61c-.06.45-.09.73-.09.85.34.56.56.33.68-.68l.25-2.12C91,49.71,91,49.23,90.88,49.23Zm.51-.85c0-.45,0-.7-.17-.76s-.28.14-.34.59.06.85.17.85a.39.39,0,0,0,.3-.17A.64.64,0,0,0,91.39,48.38Zm.25-1.78c-.22-.05-.34,0-.34.26,0,.56.12.65.51.25.06,0,.07-.15,0-.29S91.75,46.6,91.64,46.6Zm2.12-6.93c-.17,0-.27,0-.3.13s0,.18.13.29V40c0,.22.17.34.34.34s.17-.12.17-.34A.3.3,0,0,0,93.76,39.67Zm.08,9.22c-.22,0-.34,0-.34.08,0,.29.12.43.34.43s.34-.09.34-.26-.11-.22-.34-.34Zm3.81,6a.69.69,0,0,0-.17.51c0,.28,0,.41.17.38s.22-.21.34-.55,0-.45-.26-.34Zm.93-.93c-.34.29-.51.48-.51.6,0,.28.22.19.68-.26Zm1.1-1.27a3,3,0,0,0-.51.6c-.06.11.06.11.34,0a1.05,1.05,0,0,0,.76-.68v.08c.62-.78.89-1.17.8-1.14A14.82,14.82,0,0,0,99.68,52.69Zm1.18-24.35a1,1,0,0,0-.42-.55c-.17-.09-.28,0-.34.12a1.46,1.46,0,0,0,.38.64c.25.31.44.46.55.46v-.25a1.4,1.4,0,0,0-.17-.51Z" transform="translate(-6.73 -3.54)"/><path class="cls-1" d="M105.34,59.63a4.76,4.76,0,0,1-1-1.78,17,17,0,0,1-.68-2.53,14.62,14.62,0,0,1-.25-2.71,7.4,7.4,0,0,1,.34-2.37q.42-1.7,3.46-3.55t6.94-4.06l4.06-2.28a5,5,0,0,0,.76-.43h-.08c.61-.33,1.26-.7,1.94-1.1s1.28-.76,1.82-1.09l1.39-.89a2.4,2.4,0,0,0,.68-.55c.11-.34-.25-.57-1.1-.68-.28,0-.59-.13-.93-.21s-.65-.16-.93-.21a1.08,1.08,0,0,0-.55-.13c-.08,0,0,.1.13.21h-.09q.09.09-.12.09h-.38a11.11,11.11,0,0,0-1.7-.09c-.79,0-1.72,0-2.79.13a29.42,29.42,0,0,0-3.55.51,24.12,24.12,0,0,0-4,1.14c-.51.11-.89-.14-1.15-.76A6.12,6.12,0,0,1,107.2,34a15.8,15.8,0,0,1,.47-3.76c.31-1.27.66-2,1.06-2.16a7.53,7.53,0,0,1,2.7-1.81,17.94,17.94,0,0,1,3.64-1.1,34.15,34.15,0,0,1,4-.55l3.93-.34a4.38,4.38,0,0,0,.51,0,2.92,2.92,0,0,1,.5,0c.91-.05,1.91-.05,3,0a30,30,0,0,1,3.21.34,25.27,25.27,0,0,1,2.92.64,8.1,8.1,0,0,1,2,.8,4.53,4.53,0,0,1,1.6,1.52,6.3,6.3,0,0,1,.94,2.45,7.64,7.64,0,0,1,.12,1.95,23.54,23.54,0,0,1-.25,2.66,13.75,13.75,0,0,1-.68,2.67,4.56,4.56,0,0,1-1.14,1.86,62.42,62.42,0,0,1-5.2,3.8q-4.19,2.88-10.53,6.77c-.4.28-.24.46.46.55s1.77.16,3.18.21a25.78,25.78,0,0,0,4.31-.17,10.69,10.69,0,0,0,3-.76,19.58,19.58,0,0,0,3.77-2.37q2.49-1.86,5.45-4.48c1.13-1,2.12-1.8,3-2.54s1.36-1.15,1.53-1.27c.9-.28,1.46,0,1.69.68s-.06,1.75-.85,3v-.09a14.32,14.32,0,0,0-1,1.61,2,2,0,0,0-.26.84,2.2,2.2,0,0,1-.59.68c-.39.28-.59.54-.59.76a4.86,4.86,0,0,1-.55.85c-.37.5-.82,1.1-1.35,1.77l-1.74,2.16c-.62.76-1.18,1.42-1.69,2A37.31,37.31,0,0,1,134,57.05a19,19,0,0,1-3.42,2.33,13.75,13.75,0,0,1-5.33,1.1,19.76,19.76,0,0,1-6.81-1.19q-3.25-1.18-5.37-2.2a2.86,2.86,0,0,0-1.9.21,13,13,0,0,0-2.75,1.31c-.62.46-1.16.82-1.61,1.1a2.56,2.56,0,0,1-.84.43Q105.69,60.14,105.34,59.63Zm1.53-11.16A12.36,12.36,0,0,0,105.09,50a4.65,4.65,0,0,0-1,1.4c0,.45.29.33.85-.34l1.27-1.36a4.21,4.21,0,0,0,.51-.38c.17-.14.19-.26.08-.38H107c.4,0,.6-.17.6-.5v-.09c.28,0,.42-.11.42-.34h-.17a1.48,1.48,0,0,0-.42.17l-.51.26Zm3-1c.62-.34.87-.56.76-.68h.08c-.06-.05-.21,0-.46,0a3.66,3.66,0,0,0-.81.38l-.8.5c-.25.17-.41.29-.47.34q0,.35.51,0ZM109.4,32c.28-.28.26-.42-.08-.42a.89.89,0,0,0-.59.34l.59.08Zm1.95,14.21a1.29,1.29,0,0,0-.51.3c-.06.08.06.15.34.21a1.4,1.4,0,0,0,.51-.17C111.8,46.3,111.69,46.18,111.35,46.18Zm.84-.17c-.22.23-.19.34.09.34a.54.54,0,0,0,.34-.08c.11-.4.08-.59-.09-.59a.24.24,0,0,0-.17.08C112.25,45.87,112.19,46,112.19,46Zm2.88-1.69c-.17,0-.25.12-.25.34s-.06.45,0,.51.19-.06.42-.34S115.35,44.49,115.07,44.32Zm4.23-15.9c.34-.34.22-.42-.34-.25a1.31,1.31,0,0,0-.51.29c0,.09.06.19.34.3a.41.41,0,0,0,.3-.13Zm-.51,15.65c-.23.62,0,.56.76-.17l-.08-.17Zm1.95-15.65q0,1.11.42,0c0-.39-.11-.53-.34-.42S120.51,28.25,120.74,28.42Zm.76,4.4a.3.3,0,0,0,.34-.34c-.12-.22-.22-.32-.3-.29a.43.43,0,0,0-.21.12C121.16,32.48,121.21,32.65,121.5,32.82Zm1.6-4.57c.29-.28.23-.42-.17-.42s-.5.25-.5.42c.17.29.29.44.38.47s.18-.16.29-.55Zm-.08,7c.34.17.52.24.55.21s0-.12-.13-.29a.83.83,0,0,0-.67-.17c-.29.11-.38.18-.3.21A2.13,2.13,0,0,0,123,35.27Zm.25-2.45c.23,0,.34-.06.34-.17a.65.65,0,0,0-.59-.25,1.49,1.49,0,0,1-.25.21q-.09,0,.33.21Zm1.44,20.72c-.28,0-.42.09-.42.25-.17.29,0,.43.51.43a.3.3,0,0,0,.33-.34.25.25,0,0,0-.17-.25A.58.58,0,0,0,124.71,53.54ZM125.47,33a.83.83,0,0,0,.59-.17.26.26,0,0,1-.17-.09,1.44,1.44,0,0,0-.33-.25h.08a.61.61,0,0,0-.42-.13.2.2,0,0,0-.17.22C125.05,32.73,125.19,32.88,125.47,33Zm-.34-4.91a.86.86,0,0,0,.38.43q.3.16.3-.09a.52.52,0,0,0-.17-.34Q125.13,27.59,125.13,28.08Zm.43,25.71c-.12.12-.14.22-.09.3a.28.28,0,0,0,.26.13c.33,0,.5-.09.5-.26s0-.28-.25-.33a.43.43,0,0,0-.51.16Zm.84-21.06c-.28.12-.41.2-.38.26s.13.08.3.08a.84.84,0,0,0,.46,0c.14,0,.16-.1,0-.22a1,1,0,0,1-.22-.25C126.58,32.59,126.51,32.62,126.4,32.73Zm.26-4.9c-.34.11-.5.2-.47.25s.21.09.55.09.42-.11.42-.34S126.88,27.72,126.66,27.83Zm.76,25.54c-.29.17-.26.28.08.34.56,0,.73-.11.51-.34S127.7,53.26,127.42,53.37Zm.67-20.89c-.28.11-.36.18-.25.21a.85.85,0,0,1,.34.21c.39.12.65.13.76.05s0-.19-.25-.3A1.45,1.45,0,0,1,128.09,32.48Zm.26,1c.22,0,.34-.09.34-.26a.61.61,0,0,0-.43-.17c-.22,0-.32,0-.29.13S128.12,33.38,128.35,33.5Zm-.09,20.13c-.11.22,0,.33.34.33h.34c.06,0,.08,0,.08-.08a.47.47,0,0,0-.29-.42.31.31,0,0,0-.47.08Zm1.86-.51c-.33,0-.42.17-.25.51,0,0,.11.08.34.08C130.55,53.32,130.52,53.12,130.12,53.12Zm6.68-20.89a.29.29,0,0,0-.33,0,.34.34,0,0,0-.17.3c-.12.33-.06.52.17.55s.45-.13.67-.47C137.14,32.37,137,32.23,136.8,32.23ZM143,42.55a.9.9,0,0,0-.17.38c-.06.19-.11.38-.17.55-.06.5,0,.73.13.67s.29-.36.46-.93.17-.84-.17-.67Z" transform="translate(-6.73 -3.54)"/><path class="cls-1" d="M163.7,31.38a6.32,6.32,0,0,1,.63-.93,1.29,1.29,0,0,0,.3-1.18c-.17-.28-.17-.43,0-.43s.15-.11.3-.33.28-.48.42-.76l.38-.81a1.6,1.6,0,0,0,.17-.55.89.89,0,0,1,.21-.46c.14-.2.27-.3.38-.3s.34,0,.34-.34c0-.11.08-.17.25-.17s.1-.15.13-.12.1,0,.21-.05a4.44,4.44,0,0,1,2.41-.63,12.92,12.92,0,0,1,6.34,1.52,5.53,5.53,0,0,1,2.16,1.91,4.45,4.45,0,0,1-.42,1.43c-.29.68-.58,1.38-.89,2.12s-.62,1.41-.93,2a5.61,5.61,0,0,1-.64,1.1,1.65,1.65,0,0,0-.33.76c-.06.17-.15.42-.26.76s-.22.65-.34.93a7.17,7.17,0,0,0-.38,1l-.42,1.36c-.14.45-.25.87-.34,1.27a5,5,0,0,0-.12.76,1.58,1.58,0,0,0-.34.55c-.12.25-.23.52-.34.8v-.08a.57.57,0,0,0-.17.42l-.25.76c-.17,0-.26.2-.26.59a5.24,5.24,0,0,1-.42,2v-.08c-.23.45-.25.7-.09.76s0,.28-.08.67-.08.71.08.77h-.08c.34.28,1.21-.54,2.62-2.46a9.08,9.08,0,0,1,1-1.27,8.51,8.51,0,0,0,1-1.26l.34-.51c.11-.17.33-.48.67-.93l.59-.85a4.2,4.2,0,0,1,.47-.55,3,3,0,0,0,.46-.55,4.22,4.22,0,0,1,.43-.5,4.12,4.12,0,0,1,.59-1.1,2.88,2.88,0,0,0,.34-.47,1.86,1.86,0,0,1,.25-.38l.17-.34v.09l.25-.34a1.66,1.66,0,0,0,.34-.68,2.85,2.85,0,0,1,.34-.59c.23-.34.51-.73.85-1.18l1.35-2.71V32l.42-.84.51-1.1c.11-.28.22-.55.34-.8l.34-.81v.09a5.7,5.7,0,0,0,.29-.72,1.92,1.92,0,0,0,.13-.55c0-.17.06-.26.17-.26s.25-.17.08-.5h.09q.26,0,.42-.6a3.12,3.12,0,0,1,.76-1.1,1.35,1.35,0,0,1,.64-.5,3.3,3.3,0,0,1,1.22.08,6.47,6.47,0,0,1,1.19.26c.62.16,1.27.35,1.94.55s1.31.39,1.9.59l1.15.38h-.09a2.73,2.73,0,0,0,1.1.34c0,.33.06.53.34.59s.25.22.25.68a13.86,13.86,0,0,1-.12,3,4.08,4.08,0,0,1-.55,1.69c-.06.17-.17.14-.34-.09-.23.28-.3.48-.21.59a.34.34,0,0,0,.29.17c.17,0,.19.13,0,.38A1.23,1.23,0,0,1,195,34c-.17.12-.22.2-.17.26a.54.54,0,0,0,.34.08q.26,0,.21.81c0,.53-.13.8-.29.8s-.26.17-.26.51-.14.76-.25,1.27-.23,1-.34,1.47a7.54,7.54,0,0,1-.38,1.23q-.21.51-.3.51c-.22,0-.28.28-.17.84s.09.68-.08.68-.34.37-.34,1.1a2.85,2.85,0,0,1-.34,1.1.73.73,0,0,0-.25.51.58.58,0,0,1-.17.59.71.71,0,0,1,.08.34v.34l-.33.5q-.18,0-.21.3a4.23,4.23,0,0,0-.05.63,2.75,2.75,0,0,1-.21.51c-.08.17-.15.26-.21.26a.56.56,0,0,0-.08.67q0,.42-.09.42c-.23,0-.34.2-.34.6s0,.53-.34.59a.72.72,0,0,1,.26.68c-.06.22-.17.33-.34.33-.23-.22-.28-.08-.17.43v.38c0,.14-.06.21-.17.21a.65.65,0,0,0-.13.34,2.8,2.8,0,0,1-.12.5.67.67,0,0,1-.26.85,1,1,0,0,0-.25.68c-.28,0-.37.17-.25.5v.34c0,.12,0,.17-.09.17-.22,0-.31.2-.25.59,0,.12.07.19,0,.22a.15.15,0,0,0,0,.12.57.57,0,0,0-.42.17c-.12.11-.09.26.08.42v.09c-.11-.11-.21-.13-.3,0s-.1.26,0,.55a1.9,1.9,0,0,1,0,1c-.08.31-.18.41-.29.3-.34-.62-.42-.51-.26.34a6.65,6.65,0,0,1-.08,1c-.06.4-.11.54-.17.42-.23-.22-.39-.14-.51.26s-.08.59.26.42a.46.46,0,0,0-.17.34.64.64,0,0,0-.09.3c0,.08-.08.07-.25,0a1.39,1.39,0,0,1-.51,1.27,3.37,3.37,0,0,0-.46.55c-.09.14,0,.16.29,0,.06.12.07.16,0,.13s0,0,0,0a1.61,1.61,0,0,0-.17.43.76.76,0,0,1-.08.25c-.06.11-.11.24-.17.38s-.11.27-.17.38l-.76,2a61.66,61.66,0,0,1-4,8.33A26.78,26.78,0,0,1,176.47,82a10.9,10.9,0,0,1-4,2.66,8.48,8.48,0,0,1-4.22.38,18.12,18.12,0,0,1-6.9-2.37A19,19,0,0,1,156,77.48a11.86,11.86,0,0,1-1.9-4,15.91,15.91,0,0,1-.55-3.94,3.5,3.5,0,0,1,1-2.11,11.16,11.16,0,0,1,2.16-2,6.71,6.71,0,0,1,2.24-1.1c.71-.17,1.11,0,1.23.59.11.4.29,1,.55,1.86s.46,1.5.63,2a9.49,9.49,0,0,0,2.45,3.93,3,3,0,0,0,2.71.89,3.44,3.44,0,0,0,.8-.51,13.43,13.43,0,0,0,1.14-1,12.69,12.69,0,0,0,1-1,1.57,1.57,0,0,0,.38-.64c0-.11,0-.17.08-.17.23,0,.54-.39.93-1.18v.08l.51-.67a1.14,1.14,0,0,0,.25-.38,1.11,1.11,0,0,1,.26-.39q.33-.42.93-1.35c.39-.62,1-1.66,1.77-3.13A44.63,44.63,0,0,0,177,57.85q1.26-3.21,2.45-6.76c.56-1.92.92-3.12,1.06-3.6s.18-.72.12-.72q-.68-.26-.84.6a.64.64,0,0,0-.09.29.75.75,0,0,1-.08.3.63.63,0,0,0-.09.25c-.22,0-.33.14-.33.43s-.09.33-.26.33l-1.1,1.86A32,32,0,0,1,176,54.05c-.73,1.13-1.48,2.17-2.24,3.13a29.88,29.88,0,0,1-2.11,2.41A3.34,3.34,0,0,1,170,60.65a1.33,1.33,0,0,0-.51.16,2.13,2.13,0,0,1-1.14.38c-.42,0-.69,0-.8-.12a.59.59,0,0,0-.68-.09c-.28.12-.42.09-.42-.08s-.2-.25-.59-.25a4.27,4.27,0,0,1-1-.26,10,10,0,0,1-1.6-.72c-.57-.31-1.12-.65-1.65-1a4.9,4.9,0,0,1-1.23-1.14c-.28-.4-.59-.89-.93-1.48a6.82,6.82,0,0,1-.68-1.57,7.58,7.58,0,0,1-.5-1.78,11.25,11.25,0,0,1,.08-2.28c.06-.68.16-1.46.3-2.37s.26-1.66.38-2.28.31-1.11.42-1.65a8.41,8.41,0,0,0,.17-1c.11-.45.25-1.06.42-1.82a10.16,10.16,0,0,1,.51-1.73,1.16,1.16,0,0,0,.25-.6,3.23,3.23,0,0,0,.09-.59c.17-.79.31-1.18.42-1.18a1.1,1.1,0,0,1,.08-.43,1.76,1.76,0,0,1,.17-.42.4.4,0,0,1,.09-.21.43.43,0,0,0,.08-.21A2.59,2.59,0,0,0,162,35q0-.17.42-.42a.58.58,0,0,0,.25-.09.29.29,0,0,1,.17-.08.22.22,0,0,0,.17-.09c.4-.11.59-.22.59-.34s-.19-.14-.59-.25c0,.06-.05,0-.17-.25s-.2-.2-.08-.26a.76.76,0,0,0,.29-.25.31.31,0,0,0,.05-.34c-.12-.17-.06-.25.17-.25A2.9,2.9,0,0,1,163.7,31.38Zm-8.63,40.09V70a3.18,3.18,0,0,0-.34-1.52c-.17-.23-.25.06-.25.85a8.08,8.08,0,0,0,.13,1.43c.08.51.21.77.38.77Zm.34,1.1a1,1,0,0,0,.42-.08c.12-.06.12-.15,0-.26s-.31-.11-.59,0Zm6.34,8.8c.45.56.68.62.68.16a.24.24,0,0,0-.08-.16.86.86,0,0,0-.17-.13.52.52,0,0,1-.17-.13Zm1.1-47.54v-.16a.21.21,0,0,1,.17.08C163.08,33.81,163,33.83,162.85,33.83Zm1,15.4a1.13,1.13,0,0,0,0-.85q-.18-.59-.21-.42a4.29,4.29,0,0,0,0,.84,5.14,5.14,0,0,0,0,.89C163.68,49.83,163.75,49.68,163.87,49.23Zm0,2.2a.94.94,0,0,0,0-.77c-.12-.28-.19-.38-.21-.29a2.4,2.4,0,0,0,0,.63,3.12,3.12,0,0,0,0,.68C163.68,51.79,163.75,51.71,163.87,51.43Zm1.94-10.15c.12-.62.09-.86-.08-.72a2.11,2.11,0,0,0-.42,1.14.17.17,0,0,1-.05.13.16.16,0,0,0,0,.12c0,.4.11.54.34.43a.81.81,0,0,1,.08-.34.72.72,0,0,0,.09-.34A1.59,1.59,0,0,1,165.81,41.28Zm.26-1.86c-.46.79-.37,1,.25.76a1,1,0,0,0,.17-.68,3.77,3.77,0,0,0-.21-.72S166.18,39,166.07,39.42Zm1.27,36.87c.28,0,.33-.17.16-.51a.69.69,0,0,0-.5-.17c-.23,0-.37,0-.43.13s0,.18.09.3V76C166.71,76.18,166.94,76.29,167.34,76.29Zm1-.84a.47.47,0,0,0,.51-.39c0-.25,0-.38-.26-.38s-.52.19-.71.55-.25.61-.13.72c.45.4.59.31.42-.25C168,75.53,168.07,75.45,168.35,75.45Zm1.18-1.36c.12-.45.14-.69.09-.72s-.25.13-.59.47-.4.59-.17.76l.51.25a.36.36,0,0,0,.08-.25A1.29,1.29,0,0,1,169.53,74.09Zm-.42-25.54a10,10,0,0,0-.34,1.4c0,.14.14.07.43-.22h-.09c.23,0,.34-.28.34-.67a.56.56,0,0,1,.25-.51,1.79,1.79,0,0,0,.17-.85,6.1,6.1,0,0,1,.17-1.18,13,13,0,0,1,.34-1.27,1.37,1.37,0,0,0,.17-.59c.11-.34.21-.68.3-1s.18-.51.29-.51.28-.14.17-.42a2.45,2.45,0,0,1,0-.43,1.39,1.39,0,0,1,.13-.42v-.09a3,3,0,0,0,.51-1.69.22.22,0,0,1,.25-.25c.06-.28.16-.65.3-1.1s.26-.68.38-.68.34-.14.34-.42.05-.25.16-.25.2-.17.09-.51l.08-.09h-.08q.26-.07.42-.84a1.38,1.38,0,0,1,.34-1c.22-.33.2-.5-.08-.5s-.2-.09-.09-.26c.17-.34.23-.49.17-.46a3.58,3.58,0,0,0-.51.46,2.28,2.28,0,0,0-.42,1.1,1.21,1.21,0,0,1-.42.85,1.39,1.39,0,0,0-.3.59,2.88,2.88,0,0,0-.13.76,6.58,6.58,0,0,0-.16.64,2,2,0,0,1-.26.63v-.09a1.52,1.52,0,0,0-.29.6,2.26,2.26,0,0,0-.13.59c0,.06-.07.17-.21.34a2.51,2.51,0,0,0-.34.51c-.09.16-.11.26-.09.29s.16-.1.38-.38a9.3,9.3,0,0,0-.42,1.1,4.76,4.76,0,0,1-.21.72c-.14.42-.32.92-.55,1.48s-.32,1.11-.46,1.65-.24.94-.3,1.22a2.08,2.08,0,0,1-.08.47,1.72,1.72,0,0,0-.09.46A2.94,2.94,0,0,0,169.11,48.55Zm2.28,23.26a.3.3,0,0,0,.34-.34q0-.25-.12-.21l-.55.21a2,2,0,0,0-.51.55,3.72,3.72,0,0,0-.38.68,1.16,1.16,0,0,0-.13.46c0,.11.09.11.26,0a.48.48,0,0,1,.33-.17c.23,0,.37-.2.43-.59S171.28,71.81,171.39,71.81Zm-.5-45.76c-.74,0-.76.14-.09.43h-.08a2.35,2.35,0,0,0,.59.33c.06,0,.08-.14.08-.42S171.23,26.05,170.89,26.05Zm1,42c-.11.11-.12.21,0,.29a.38.38,0,0,0,.3.13c.22,0,.33-.11.33-.34,0-.06,0-.1,0-.12a.18.18,0,0,1,0-.13v-.09a.58.58,0,0,0-.25.09.53.53,0,0,0-.26.25Zm.68,2.37c0-.23-.06-.34-.34-.34s-.34.17-.17.5a.36.36,0,0,0,.51-.08Zm-.17-3.13c-.11.11-.13.21,0,.29a.37.37,0,0,0,.29.13.3.3,0,0,0,.34-.34c0-.22-.08-.34-.25-.34a.22.22,0,0,0-.17.09c-.11.11-.17.19-.17.25Zm.76,1.94a2.58,2.58,0,0,0,0-.67c0-.06-.1.11-.21.5V69l-.26.42a.57.57,0,0,0-.17.42C173,69.86,173.17,69.67,173.17,69.27Zm8.54,1.61a13,13,0,0,0,.64-1.65c.14-.48.15-.72,0-.72s-.42.22-.59.68a.68.68,0,0,0-.09.33v.09c-.28,0-.45.2-.5.59a1.41,1.41,0,0,1-.43,1,.48.48,0,0,0-.17.34c0,.11.06.16.17.16l-.08.09s0,.08,0,.08,0,0,0,.09l-.5.84-.17.34c0,.23-.14.4-.43.51-.11.11-.18.17-.21.17s0,.08,0,.25a1.55,1.55,0,0,1-.13.51c-.08.22-.18.46-.29.72a3.14,3.14,0,0,1-.43.68c-.16.19-.28.29-.33.29-.23,0-.29.11-.17.34a1.89,1.89,0,0,1-.34.68c-.23.33-.51.73-.85,1.18s-.69.9-1.05,1.35-.67.79-.89,1a16.78,16.78,0,0,0-1.52,1.65c-.23.31-.29.46-.17.46a3.06,3.06,0,0,0,.93-.59L175.37,81a17.2,17.2,0,0,0,1.44-1.74c.56-.76,1.14-1.6,1.73-2.53s1.16-1.91,1.69-2.92S181.26,71.84,181.71,70.88Zm-8.29-5.08c-.16.57,0,.65.34.26.23-.23.28-.42.17-.59S173.59,65.47,173.42,65.8Zm.68,2.12c.06-.23,0-.34-.17-.34a.3.3,0,0,0-.34.34c0,.22.09.34.26.34l.25-.26Zm.09-.59q.59-.18.42-.51a.65.65,0,0,0-.59.25Zm6.17-18.1c-.11.45-.2.79-.25,1a1.32,1.32,0,0,0-.09.42q-.26.51.09.51.16,0,.42-.84l.51-1.69a15.27,15.27,0,0,0,.55-1.74c.14-.59.24-1,.29-1.31a1.4,1.4,0,0,1,.17-.51.69.69,0,0,0,.09-.34,1,1,0,0,0-.17-.93l-.17.51a.26.26,0,0,0-.09.17,4.73,4.73,0,0,0-.34.93c-.16.57-.36,1.27-.59,2.12Zm1.94,1.35c0-.22-.16-.25-.5-.08a.92.92,0,0,0-.17.67,1.26,1.26,0,0,0,.55-.34A.49.49,0,0,0,182.3,50.58Zm-.5,5.58c-.12.4-.12.54,0,.43a4.19,4.19,0,0,0,.5-.85l.34-.8a1.5,1.5,0,0,0,.17-.55c0-.29-.12-.2-.38.25A7.79,7.79,0,0,0,181.8,56.16Zm.93-9.22a1.19,1.19,0,0,0-.38.64c0,.2.1.29.38.29s.31-.19.42-.59.14-.53.09-.59S183,46.72,182.73,46.94Zm.51,19a.61.61,0,0,0-.34.59c0,.4,0,.57.17.51s.22-.28.33-.67a1.76,1.76,0,0,0,0-.38c0-.15-.1-.16-.21,0Zm.42-1.94c0,.51.08.67.25.51.11-.4.14-.63.09-.68Zm1.61-18.86c-.12.62-.06.83.16.63a2.11,2.11,0,0,0,.51-1.22c.06-.46.09-.75.09-.89s-.12-.1-.34.12A2.86,2.86,0,0,0,185.27,45.17Zm1.43-6.26a14.91,14.91,0,0,0-.34,2c0,.28.14.25.43-.09a1.3,1.3,0,0,0,.08-.76c0-.17,0-.25.09-.25s.25-.14.25-.42-.11-.34,0-.34c.28,0,.37-.2.25-.59a1.15,1.15,0,0,1,.17-.76.34.34,0,0,0,.13-.34.53.53,0,0,0-.13-.26c-.28-.17-.46-.14-.55.09A14.89,14.89,0,0,0,186.7,38.91Zm.6-2.54c-.12.34-.06.51.16.51s.31-.17.43-.51v-.25c0-.11,0-.17-.09-.17C187.58,36,187.41,36.09,187.3,36.37Zm7-5c0,.51.12.65.34.42v-.59c0-.11-.05-.14-.17-.08A.28.28,0,0,0,194.31,31.38Zm1.53-.17a.48.48,0,0,0-.17.34.32.32,0,0,1-.09.25c.06.12.14.12.26,0A.57.57,0,0,0,195.84,31.21Z" transform="translate(-6.73 -3.54)"/><path class="cls-1" d="M194.91,53.46a9.41,9.41,0,0,1-.26-2.54,30.59,30.59,0,0,1,.17-3.13,18,18,0,0,1,.51-2.79c.28-1.19.56-2.27.85-3.26a23.2,23.2,0,0,1,1-2.92,23.84,23.84,0,0,1,1.57-2.91c.62-1,1.35-2.1,2.2-3.34,0-.06.05-.14.17-.26A7,7,0,0,1,202.26,31l1.19-1.44a12,12,0,0,1,.84-.93,15,15,0,0,1,1.36-1.18q.76-.6,1.56-1.14a8.4,8.4,0,0,1,1.4-.81,10.57,10.57,0,0,1,2.54-1,11.19,11.19,0,0,1,2.53-.26,12.56,12.56,0,0,1,3.81.64,6,6,0,0,1,3.38,3.25,9.83,9.83,0,0,0,.51-1.14c.11-.31.22-.6.34-.89a2,2,0,0,1,.42-.93,3.74,3.74,0,0,1,.76-.72,1.57,1.57,0,0,1,1-.12,6.65,6.65,0,0,1,1.65.34c.76.22,1.53.49,2.32.8a24.38,24.38,0,0,1,2.24,1,4.69,4.69,0,0,1,1.4,1,3.31,3.31,0,0,1,1.1,2.36,11.58,11.58,0,0,1-.85,3.51c-.56,1.56-1.49,3.88-2.79,7q-.51,1.18-.93,2.37c-.28.79-.54,1.54-.76,2.24s-.41,1.3-.55,1.78-.24.8-.3,1l-.08.34h.17l.51-.51a10.7,10.7,0,0,1,1-.85l1.06-.8a6.11,6.11,0,0,0,.67-.55c.79-.62,1.47-1.18,2-1.69s1.24-1.15,2-1.94c.68-.57,1.2-1,1.57-1.36a7,7,0,0,1,.93-.76,2.87,2.87,0,0,1,.63-.34,1.81,1.81,0,0,1,.51-.08,2.06,2.06,0,0,1,1.27.29,1.19,1.19,0,0,1,.25,1.06,2.88,2.88,0,0,1-.17.85c-.11.34-.24.67-.38,1a8.38,8.38,0,0,1-.42.89,2.76,2.76,0,0,1-.3.47h.09l-.43.42a3.14,3.14,0,0,0-.42.51,10.47,10.47,0,0,1-.76,1.22,9,9,0,0,1-.93,1.14,2.59,2.59,0,0,0-.63.72,1.33,1.33,0,0,0-.22.55c0,.12-.11.23-.33.34a1.29,1.29,0,0,0-.34.25.48.48,0,0,0-.17.34c0,.17-.06.26-.17.26-.28,0-.42.22-.42.67a.58.58,0,0,1-.13.34l-.21.25h.08c-.28.17-.34.34-.17.51,0,.06,0,.09-.08.09-.23,0-.37.17-.42.5,0,.17-.06.26-.17.26s-.31.14-.43.42-.08.42-.25.25a.3.3,0,0,0-.34.34c0,.17-.06.26-.17.26s-.25.17-.08.5a.08.08,0,0,1-.09.09.29.29,0,0,0-.17.08q-.59.09-.42.51c0,.17-.25.52-.76,1.06s-1.07,1.1-1.69,1.69-1.24,1.16-1.86,1.69A10.66,10.66,0,0,1,224.25,60a4.48,4.48,0,0,1-3.25.29,8.3,8.3,0,0,1-3.09-1.65,13,13,0,0,1-2.49-2.7,8.8,8.8,0,0,1-1.4-3,7.58,7.58,0,0,1-.25-3.47,5,5,0,0,1,0-.72,3.65,3.65,0,0,0,0-.55v-.59h-.17a.27.27,0,0,0-.08.17V48c-.06.45-.16,1.08-.3,1.9a7.36,7.36,0,0,1-.89,2.41,25.43,25.43,0,0,1-3,5.37,20.38,20.38,0,0,1-2,2.24,3.87,3.87,0,0,1-2.28.51,10,10,0,0,1-2.8-.42,14.12,14.12,0,0,1-4.56-2.88A10.6,10.6,0,0,1,194.91,53.46Zm3-6.94a.3.3,0,0,0-.34.34c0,.23.08.34.25.34L198,47C198.12,46.69,198.09,46.52,197.87,46.52Zm.34-1.1c-.29-.28-.43-.25-.43.09a.6.6,0,0,0,.21.5.25.25,0,0,0,.38,0C198.49,45.9,198.43,45.7,198.21,45.42Zm.33,8a.66.66,0,0,0,.09-.26c0-.05-.09-.08-.26-.08s-.33.11-.33.34.08.33.25.33l.25-.25Zm.09-9.73a.3.3,0,0,0-.34.34c0,.22.06.34.17.34s.22-.12.34-.34v.08c.11-.11.14-.21.08-.29A.27.27,0,0,0,198.63,43.73Zm7.86,2.79a9.39,9.39,0,0,0-.76,2.33c-.11.7,0,.88.26.55a8.51,8.51,0,0,0,1-2.29c.23-.62.41-1.12.55-1.52s.18-.62.13-.68a.22.22,0,0,0-.34,0A10.43,10.43,0,0,0,206.49,46.52Zm.6-2.62A.17.17,0,0,1,207,44a.16.16,0,0,0,0,.12c0,.23.06.31.17.26a1.07,1.07,0,0,0,.34-.51V44c.28-.39.31-.59.08-.59s-.34.14-.5.42Zm1.1,5.83a.71.71,0,0,0,.25-.46c0-.14-.06-.21-.17-.21l-.51.51a.51.51,0,0,1-.08.21.37.37,0,0,0-.09.21V49.9c-.28.29-.31.43-.08.43S208,50.13,208.19,49.73ZM207.93,44a.57.57,0,0,0-.34.51c0,.28.06.41.17.38s.23-.21.34-.55S208.16,43.87,207.93,44Zm.09-.59a2.4,2.4,0,0,0-.3.68,3.86,3.86,0,0,0,.55-.51c.22-.22.28-.42.17-.59S208.19,43,208,43.39Zm.93,1.52c-.17.46-.31.84-.43,1.15a3.43,3.43,0,0,0-.17.54c0,.12.12.09.34-.08s.51-.39.85-.68.69-.6,1.06-1,.69-.72,1-1.06l1.27-1.69.76-.84c.22-.34.51-.82.84-1.44a3.16,3.16,0,0,0,.34-.38.46.46,0,0,1,.34-.21A2.52,2.52,0,0,1,215.8,38c.5-.62.67-1,.5-1.1.06,0,.12-.07.17-.21a1.08,1.08,0,0,1,.26-.38c.67-.85.84-1.3.5-1.36s-1.12.37-2.36,1.27a21.93,21.93,0,0,0-3.26,3.85A23.8,23.8,0,0,0,209,44.91Zm-.26-3.29c-.22-.46-.34-.4-.34.16s.12.65.34.43S208.8,41.9,208.69,41.62Zm15.73-29.18c-.22-.57-.35-.81-.38-.72a4.43,4.43,0,0,0,.13,1.06v.59q-.16-.18-.3,0c-.08.11-.07.25,0,.42a.75.75,0,0,1,.08.3c0,.08,0,.1-.08,0-.23-.11-.48.22-.76,1a7.63,7.63,0,0,1-1,1.4c-.51.59-1.06,1.2-1.65,1.82a17.31,17.31,0,0,1-1.86,1.69,15.06,15.06,0,0,1-1.56,1.1,3.92,3.92,0,0,1-2.08.63,2.61,2.61,0,0,1-1.65-.72,4.32,4.32,0,0,1-.71-.88,2.8,2.8,0,0,1-.22-1.32,4,4,0,0,1,.51-2.15,8.27,8.27,0,0,1,2.2-2,25.64,25.64,0,0,0,3.21-2.49,19.52,19.52,0,0,0,2.12-2.42q.26-.33.51-.63a5.4,5.4,0,0,0,.42-.55,3.37,3.37,0,0,0,.34-.51c0,.06.1.12.29.17a3.59,3.59,0,0,1,.64.26c1,.45,1.6,1.55,1.77,3.29q.09.6,0,.51ZM213.34,28.25c-.45.12-.67.23-.67.34s.22.17.67.17a.91.91,0,0,0,.85-.42c.11-.23.1-.35,0-.38A1.57,1.57,0,0,0,213.34,28.25Zm.09-9.13a1.58,1.58,0,0,0,.08-.59c-.11-.23-.22-.31-.33-.26s-.17.26-.17.59c0,.68.14.79.42.34ZM214.19,48c.06-.23,0-.34-.17-.34a.46.46,0,0,0-.51.34v-.09q-.16.18-.12.3c0,.08.12.13.29.13a.74.74,0,0,0,.51-.26Zm.42-1c.12-.39.06-.59-.17-.59l-.33.59v-.08c-.34.45-.32.68.08.68Q214.45,47.54,214.61,46.94ZM222,15.23a.08.08,0,0,0,.09-.09l.08-.17v.09c.45-.73.59-1.1.42-1.1s-.56.31-1.18.93a3.43,3.43,0,0,1-.51.59L219.52,17,218,18.44a1.38,1.38,0,0,0-.43.51c-.11.23-.2.39-.25.51l-.09.17a.6.6,0,0,0-.59-.22c-.28,0-.42.1-.42.22s-.08.08-.25.08q-1.44-.16-1.44.42c0,.29.14.34.42.17.23,0,.34,0,.34.09,0,.28.25.28.76,0a1.51,1.51,0,0,1,.42-.3.48.48,0,0,1,.43,0c.79,0,1.1-.2.93-.59-.12-.12-.06-.28.17-.51s.42-.31.59-.25c.34.11.51,0,.51-.26s.05-.2.16-.08.53-.14.89-.59a2,2,0,0,0,.55-1.1.23.23,0,0,1,.26-.26,1.39,1.39,0,0,0,.84-.51C222.25,15.45,222.31,15.23,222,15.23Zm-5.75,35.35c-.34,0-.37.25-.08.76v-.08c.11.5.28.65.5.42a1.4,1.4,0,0,0,.13-.34.2.2,0,0,0-.13-.25h-.17C216.64,50.75,216.56,50.58,216.22,50.58Zm-.08,3.13a1,1,0,0,0,.38.47c.14.08.26,0,.38-.13s-.12-.28-.34-.51-.45-.32-.51-.3S216,53.43,216.14,53.71ZM216.73,32a.79.79,0,0,0-.26-.08c-.05,0-.08.08-.08.25a.3.3,0,0,0,.34.34c.22,0,.34-.08.34-.25l-.26-.26ZM216.39,47c0,.17.15.25.46.25a.65.65,0,0,0,.64-.34c0-.11,0-.38,0-.8a10.14,10.14,0,0,1,.21-1.4,7.52,7.52,0,0,0,.17-1.39c0-.37-.06-.49-.17-.38l-.34.68L217,45a3.34,3.34,0,0,1,0,.63c0,.14.07.27.29.38h-.16c.11.06.12.13,0,.22a1.61,1.61,0,0,1-.3.21Zm.68,1c.22-.45.11-.56-.34-.34a1.14,1.14,0,0,0-.17.51,7.72,7.72,0,0,0-.13.93c0,.34,0,.64,0,.89s0,.38.08.38.14-.08.26-.25a1.24,1.24,0,0,0,.17-.68A5.57,5.57,0,0,1,217.07,48Zm1.18-5.24c.17-.17.14-.45-.09-.85C218,42.74,218,43,218.25,42.8Zm.25-2c-.11-.11-.21-.13-.29,0a.37.37,0,0,0-.13.29c0,.23.08.34.25.34a.57.57,0,0,0,.43-.17.26.26,0,0,0-.09-.17l-.25-.25Zm1-1.78c-.06,0-.09,0-.09,0s0,0-.08,0c-.23.11-.34.22-.34.34-.06.28,0,.43,0,.46s.24-.18.47-.63Zm1.27-10.57c-.12.12-.2.17-.26.17a1,1,0,0,0-.34,1Zm.59,20.81c-.06,0-.14.2-.25.59s-.23.84-.34,1.35-.2,1-.26,1.44-.08.73-.08.85c.34.56.56.33.68-.68l.25-2.12C221.49,49.71,221.49,49.23,221.38,49.23ZM221.13,14c-.12.23,0,.34.25.34a.3.3,0,0,0,.34-.34.21.21,0,0,0,0-.12.17.17,0,0,1-.05-.13v-.08a.57.57,0,0,0-.25.08A.55.55,0,0,0,221.13,14Zm.76,34.34c.05-.45,0-.7-.17-.76s-.29.14-.34.59.05.85.17.85a.36.36,0,0,0,.29-.17A.6.6,0,0,0,221.89,48.38Zm.25-1.78c-.23-.05-.34,0-.34.26-.06.56.11.65.51.25a.32.32,0,0,0,0-.29C222.32,46.68,222.25,46.6,222.14,46.6Zm.34-32.73c.11.12.25,0,.42-.25a1.61,1.61,0,0,0,.26-.84c0-.29-.12-.29-.34,0C222.48,13.4,222.36,13.76,222.48,13.87Zm1.77,25.8c-.16,0-.26,0-.29.13s0,.18.13.29V40c0,.22.16.34.33.34s.17-.12.17-.34A.3.3,0,0,0,224.25,39.67Zm.09,9.22c-.23,0-.34,0-.34.08,0,.29.11.43.34.43s.34-.09.34-.26-.12-.22-.34-.34Zm3.8,6a.73.73,0,0,0-.16.51c0,.28.05.41.16.38s.23-.21.34-.55,0-.45-.25-.34Zm.94-.93c-.34.29-.51.48-.51.6,0,.28.22.19.67-.26Zm1.09-1.27a2.8,2.8,0,0,0-.5.6c-.06.11.05.11.34,0a1.07,1.07,0,0,0,.76-.68v.08c.62-.78.88-1.17.8-1.14A15.63,15.63,0,0,0,230.17,52.69Zm1.19-24.35a1,1,0,0,0-.42-.55c-.17-.09-.29,0-.34.12a1.36,1.36,0,0,0,.38.64c.25.31.43.46.55.46v-.25a1.4,1.4,0,0,0-.17-.51Z" transform="translate(-6.73 -3.54)"/><path class="cls-1" d="M252.59,48.3c-.17,0-.27-.06-.3-.17s.07-.23.3-.34l.16.17a.37.37,0,0,0-.08.25Zm.5-.26c.17-.17.19-.29,0-.38a.4.4,0,0,0-.39,0,25.67,25.67,0,0,1,1-3.68q.79-2.49,2-5.75c.81-2.17,1.72-4.51,2.7-7s2-5,3.09-7.48h-.34l-3.21.84c-1.58.51-2.57.68-3,.51a4.19,4.19,0,0,1-.55-2.16q-.13-1.65-.21-3V18.7a1.28,1.28,0,0,1,.72-1.27,7.51,7.51,0,0,1,2.11-.85c.87-.22,1.83-.42,2.88-.59s2-.31,3-.42l1.1-.17,1-.17a40,40,0,0,1,3.43-6.18A7.25,7.25,0,0,1,271,6.6a2.52,2.52,0,0,1,1.61-.13,9.14,9.14,0,0,1,1.44.55H274l.76.34c.68.4,1.37.79,2.08,1.19a8.77,8.77,0,0,1,1.81,1.31,4.86,4.86,0,0,1,1.1,1.43,1.87,1.87,0,0,1,0,1.57l-.59.51h2.2c.17,0,.37,0,.59,0a5.81,5.81,0,0,1,.76-.05,25,25,0,0,1,3.22.05c1.13.08,2.18.19,3.17.33a21,21,0,0,1,2.58.51,2.67,2.67,0,0,1,1.35.64,1,1,0,0,0,.68.33c.22,0,.32.37.3,1.1a12.09,12.09,0,0,1-.39,2.46,19.74,19.74,0,0,1-.8,2.53c-.31.79-.61,1.24-.89,1.36a5.28,5.28,0,0,1-.93.08,2.33,2.33,0,0,1-.93-.17c-.28-.05-.73-.11-1.35-.17s-1.26-.1-1.9-.12-1.24-.05-1.78-.05a3.89,3.89,0,0,0-1.06.09h-2.53l-2,.25-4.23.34-1.27,2.37c-.79,1.63-1.43,3-1.9,4.23s-.95,2.39-1.4,3.63c-.34,1-.72,2-1.14,3.13s-1,2.51-1.65,4.15q-.51,1.18-.93,2.37t-.72,2.19l-.51,1.74c-.14.48-.24.8-.29,1l-.09.34h.17l.51-.51a10.7,10.7,0,0,1,1-.85l1.06-.8a6.53,6.53,0,0,0,.68-.55c.78-.62,1.46-1.18,2-1.69s1.24-1.15,2-1.94c.68-.57,1.22-1,1.61-1.36a12,12,0,0,1,1-.76,3.14,3.14,0,0,1,.64-.34,1.81,1.81,0,0,1,.51-.08,1.83,1.83,0,0,1,1.22.29,1.26,1.26,0,0,1,.21,1.06,2.59,2.59,0,0,1-.17.85c-.11.34-.24.67-.38,1s-.26.64-.38.89a2.42,2.42,0,0,1-.25.47h.08l-.42.42a3.14,3.14,0,0,0-.42.51,8.44,8.44,0,0,1-.81,1.22,10.77,10.77,0,0,1-1,1.14,2.59,2.59,0,0,0-.63.72,1.42,1.42,0,0,0-.21.55c0,.12-.12.23-.34.34a1.29,1.29,0,0,0-.34.25.52.52,0,0,0-.17.34c0,.17-.06.26-.17.26-.28,0-.42.22-.42.67a.52.52,0,0,1-.13.34,1.5,1.5,0,0,1-.21.25h.09c-.29.17-.34.34-.17.51a.08.08,0,0,1-.09.09c-.22,0-.37.17-.42.5,0,.17-.06.26-.17.26s-.31.14-.42.42-.09.42-.26.25a.31.31,0,0,0-.34.34c0,.17-.05.26-.16.26s-.26.17-.09.5c0,.06,0,.09-.08.09a.25.25,0,0,0-.17.08c-.4.06-.54.23-.43.51s-.25.52-.76,1.06-1.07,1.1-1.69,1.69-1.24,1.16-1.86,1.69A11.57,11.57,0,0,1,263.16,60a4.51,4.51,0,0,1-3.26.29,8.3,8.3,0,0,1-3.09-1.65,13,13,0,0,1-2.49-2.7,9,9,0,0,1-1.4-3,7.71,7.71,0,0,1-.25-3.47,1.82,1.82,0,0,1,0-.38,1.82,1.82,0,0,0,0-.38V48.3C252.81,48.3,252.92,48.21,253.09,48Zm6.68-6.93s0,.08,0,.08,0,0,0,.09v-.09a.61.61,0,0,0-.17.43c0,.16,0,.24.13.21s.18-.16.29-.38v.08a.82.82,0,0,0,.26-.59c0-.28,0-.39-.09-.34s-.17.2-.34.42Zm.6-2a.61.61,0,0,0-.34.59c0,.34.05.5.17.47s.22-.24.34-.63S260.48,39.16,260.37,39.16Zm.33-1.35c-.16.28-.19.48-.08.59.28.28.42.23.42-.17l.26-.76c.11-.39,0-.59-.26-.59s-.45.14-.17.42a.57.57,0,0,1-.17.43Zm.77-2.45c-.17,0-.26.11-.26.33s.09.34.26.34.25-.14.25-.42Zm0-7.11c-.06.12-.08.2-.05.26a.52.52,0,0,1,.05.25.32.32,0,0,0,.08.25,1.22,1.22,0,0,0,.21-.46c.09-.26.16-.47.21-.64a.36.36,0,0,0,0-.38c-.08-.14-.13-.18-.13-.12A1.49,1.49,0,0,0,261.47,28.25Zm.76,6.18c.11-.28.12-.45,0-.51s-.18,0-.3.08l-.25.26a1.4,1.4,0,0,1-.17.51v-.09c-.23.4-.17.54.17.42a1.07,1.07,0,0,0,.34-.29A.66.66,0,0,0,262.23,34.43Zm-.17-11a.22.22,0,0,0-.13,0,.17.17,0,0,1-.13.05Zm0,10.32c.11.11.24.06.38-.17a2.11,2.11,0,0,0,.29-.76c0-.17-.11-.25-.33-.25s-.23.16-.34.5S261.94,33.64,262.06,33.75Zm.25-7.53-.17-.17a.86.86,0,0,0,0,.68c.08.17.18.2.3.08s0-.22-.09-.5Zm.09-.5c-.17,0-.26.05-.26.16a.55.55,0,0,0,.26.26.69.69,0,0,0,.25.08v-.08c0-.06,0-.09,0-.09s0-.05,0-.17S262.62,25.72,262.4,25.72Zm0-.51c-.23.22-.14.34.25.34a.31.31,0,0,0,.34-.34A.4.4,0,0,0,262.4,25.21Zm.93,5.92a3.34,3.34,0,0,0,.42-1.19q-.35-.33-.42-.12a8.31,8.31,0,0,0-.26.89,1.21,1.21,0,0,1-.42.84c-.34.4-.37.59-.08.59.11,0,.23-.09.38-.29A4,4,0,0,0,263.33,31.13Zm-.51-6.94c-.17,0-.25.12-.25.34,0,.4.08.54.25.42a1.69,1.69,0,0,0,.51-.76,2.59,2.59,0,0,0,.25-.5.39.39,0,0,0-.08-.43c-.12-.11-.2-.1-.26,0s-.11.3-.17.47S263,24.19,262.82,24.19Zm.42,24.7c-.22,0-.34,0-.34.08,0,.29.12.43.34.43s.34-.09.34-.26-.11-.22-.34-.34Zm.85-19.37a.74.74,0,0,0-.26-.51.41.41,0,0,0,0,.47c.09.2.18.24.3.13Zm.17-.68a.82.82,0,0,0-.09-.59.22.22,0,0,0-.34,0c-.11.12-.11.31,0,.59ZM265,27c0-.28-.09-.36-.26-.25a1,1,0,0,0-.33.68c.28,0,.45-.06.5-.17A.61.61,0,0,0,265,27Zm1-2.2a1.63,1.63,0,0,1,.6-1.09,1,1,0,0,0-.26,0,1,1,0,0,1-.25,0,.6.6,0,0,1-.26.08h-.08a3.53,3.53,0,0,0-.38,1.36c0,.45.1.53.38.25L266,25a.17.17,0,0,1,0-.13A.17.17,0,0,0,266,24.78Zm.43-8.79a.71.71,0,0,0-.43.59h.26a.38.38,0,0,0,.17,0,.54.54,0,0,1,.25,0,21.08,21.08,0,0,0,1.06-1.86c.08-.23-.1-.12-.55.33q-.35-.17-.51.09a2.09,2.09,0,0,0-.17.55v.21C266.65,15.93,266.63,16,266.46,16Zm.59,38.9a.69.69,0,0,0-.17.51c0,.28.05.41.17.38s.22-.21.34-.55,0-.45-.26-.34Zm.59-41.1a.54.54,0,0,0-.25.3,1,1,0,0,0-.09.38q.26.67,1-.6a11,11,0,0,0,.76-1.35c.05-.17-.2,0-.76.34h.08a1.22,1.22,0,0,0-.46.3c-.15.14-.16.26-.05.38l-.08.08c-.11.11-.2.17-.25.17ZM268,54c-.34.29-.51.48-.51.6,0,.28.23.19.68-.26Zm1.1-1.27a3.36,3.36,0,0,0-.51.6c-.06.11.06.11.34,0a1.05,1.05,0,0,0,.76-.68v.08c.62-.78.89-1.17.8-1.14A14.82,14.82,0,0,0,269.08,52.69Zm0-41a.89.89,0,0,0-.34.59q0,.42.51-.09a.74.74,0,0,0,.34-.59.78.78,0,0,0-.26,0,.37.37,0,0,1-.17,0Zm1.18,3a.49.49,0,0,0-.25.12.37.37,0,0,0-.17.3l.68.17.5-.76.17-.51.17-.42c-.68.17-.9.31-.68.42l-.08.08c-.06,0-.08,0-.08.05s0,0-.09,0c-.28.28-.34.42-.17.42s.17.16.17.13S270.37,14.64,270.26,14.64Zm1.1-1.78c-.17.45-.22.69-.17.72s.28-.24.68-.8a2.31,2.31,0,0,0,.42-1.1.35.35,0,0,0-.29.16c-.09.12-.1.17-.05.17l-.08-.08a.22.22,0,0,1,0,.13.17.17,0,0,0-.05.12C271.62,12.24,271.47,12.47,271.36,12.86Zm.93-2c-.28.4-.31.59-.08.59a.72.72,0,0,0,.59-.42c.22-.45.22-.68,0-.68ZM273.22,25c-.45,1-.34,1,.34.17.34-.34.51-.59.51-.76s-.17-.25-.51-.25a1.59,1.59,0,0,1-.34.76Zm3-6.34c-.11.06-.15.07-.12,0s0,0-.05,0h.09a.32.32,0,0,0-.51,0c-.17.06-.21.13-.13.21a.64.64,0,0,0,.47.13h-.09a.73.73,0,0,0,.68,0c.22-.11.3-.17.21-.17a1.38,1.38,0,0,1-.46-.17Zm2-.08a.57.57,0,0,0-.67-.09c-.68.28-.6.42.25.42Q278.3,18.78,278.21,18.53Zm.09-7.78c-.12.11-.16.21-.13.29s.13.13.3.13.33-.11.33-.34a.17.17,0,0,0,0-.13.15.15,0,0,1,0-.12v-.09c-.28,0-.42.12-.42.34Zm.84,2.19c-.11-.22-.22-.19-.34.09a5.23,5.23,0,0,0,.05.89q0,.21.21-.21A2.38,2.38,0,0,0,279.14,12.94Zm.43,5.42a1.64,1.64,0,0,0-.6.08c-.11.4,0,.54.34.42h.76a1.33,1.33,0,0,0,.43-.21c.11-.08.14-.15.08-.21-.06-.22-.14-.32-.25-.29a.19.19,0,0,0-.17.21q-.18.16-.51,0Zm2.53-.09a.34.34,0,0,0-.34-.17.44.44,0,0,1-.21.13c-.08,0-.1.13,0,.3a1,1,0,0,0,.51.08Zm1.19.34c.28.06.43,0,.46-.08a.2.2,0,0,0-.13-.26l-.33-.17a.41.41,0,0,1-.51,0c-.34-.11-.45,0-.34.34a2.14,2.14,0,0,0,.42.17A.53.53,0,0,0,283.29,18.61Zm.59-.34c-.12.12,0,.21.25.3a1,1,0,0,0,.76,0c.23,0,.28-.14.17-.43,0-.05-.18-.07-.55,0S283.93,18.16,283.88,18.27Zm2.87.26a2.81,2.81,0,0,0,.81,0l.46,0c.11-.29.1-.44,0-.47a3.74,3.74,0,0,0-.89,0,.79.79,0,0,1-.93-.08c-.51-.17-.73-.11-.67.17a2,2,0,0,0,.46.25A1.29,1.29,0,0,0,286.75,18.53Zm1.78.17c.11,0,.25-.14.42-.43a.43.43,0,0,0-.46.13c-.14.14-.16.24,0,.3Zm.68-.09a.55.55,0,0,0,.29-.08,2.14,2.14,0,0,1,.3-.17c.11-.23.08-.35-.09-.38s-.36.07-.59.29Z" transform="translate(-6.73 -3.54)"/><path class="cls-1" d="M283,24.53c.17,0,.25-.05.25-.17a2,2,0,0,1,.34,0,2.05,2.05,0,0,0,.51.05c.56.05,1.31.15,2.24.29a9,9,0,0,1,2.62.81,3.94,3.94,0,0,1,1.82,1.69,3.64,3.64,0,0,1-.09,3v-.09a.92.92,0,0,0-.21.51,4.48,4.48,0,0,0,0,.59,3.3,3.3,0,0,1-.17.89c-.11.37-.24.73-.38,1.1a9.73,9.73,0,0,1-.46,1,4.26,4.26,0,0,1-.34.55,1.55,1.55,0,0,0-.34.76l-.51,1.69-.42,1.05c-.17.43-.33.87-.47,1.32s-.25.87-.33,1.26a4.46,4.46,0,0,0-.13.77,1.58,1.58,0,0,0-.34.55c-.11.25-.23.52-.34.8a3.91,3.91,0,0,1-.42,1.1c-.12,0-.17.11-.17.34a.15.15,0,0,1,0,.12.17.17,0,0,0,0,.13,5.29,5.29,0,0,1-.43,2c-.11.4-.14.62-.08.68s.08.33-.09.67-.11.71,0,.76.54,0,.93-.38a17.69,17.69,0,0,0,1.78-2.07,16.9,16.9,0,0,1,1-1.39l.89-1.15,1-1.43.59-.85a5.4,5.4,0,0,1,.42-.55,5.4,5.4,0,0,0,.42-.55q.25-.33.42-.51a2.41,2.41,0,0,1,.6-1l.25-.34a.5.5,0,0,0,.13-.21.43.43,0,0,1,.12-.21.24.24,0,0,0,.09-.17.68.68,0,0,1,.25-.42c.4-.4.59-.68.59-.85l1.19-1.78a6.69,6.69,0,0,0,.59-1.6,3.28,3.28,0,0,1,.34-.93l1.27-2.71c-.06-.06,0-.25.25-.59a.24.24,0,0,0,.09-.17.48.48,0,0,1,.08-.34,6.18,6.18,0,0,0,.34-.59,4.27,4.27,0,0,0,.25-.59,4,4,0,0,1,.38-.72.59.59,0,0,1,.47-.3c.34-.22.45-.45.34-.67-.06-.06,0-.24.17-.55a3,3,0,0,1,.42-.64c.22-.28.87-.36,1.95-.25a18.06,18.06,0,0,1,6.76,2.24,3,3,0,0,1,1.69,1.9,5.5,5.5,0,0,1-.25,1.86c-.23.91-.52,1.93-.89,3.09s-.78,2.4-1.23,3.72-.87,2.58-1.26,3.76c-.46,1.36-.87,2.61-1.23,3.77s-.58,1.87-.64,2.15l-.08.93a.43.43,0,0,0,.59.3,3.27,3.27,0,0,0,1-.51,8.76,8.76,0,0,0,1.1-.89c.37-.33.69-.64,1-.92a6.7,6.7,0,0,0,.59-.51l.25-.26,2.71-3c.56-.56,1-1,1.39-1.35s.67-.59.89-.76a2.35,2.35,0,0,1,.59-.34,2.13,2.13,0,0,1,.6-.08,1.83,1.83,0,0,1,1.22.29,1.72,1.72,0,0,1,.38,1.06,5.94,5.94,0,0,1-.38,1.82,12.37,12.37,0,0,1-.55,1.48,1.11,1.11,0,0,0-.38.46,5.05,5.05,0,0,1-.55.81,6.18,6.18,0,0,1-.51,1,4.6,4.6,0,0,1-.76,1,2.52,2.52,0,0,0-.67,1.27c0,.11-.12.23-.34.34a.72.72,0,0,0-.42.59c0,.28-.06.42-.17.42s-.34.2-.34.6a.77.77,0,0,1-.25.5h.08c-.23.06-.28.2-.17.43a.76.76,0,0,0-.42.67c0,.17-.06.26-.17.26s-.34.17-.34.5-.08.34-.25.17a.3.3,0,0,0-.34.34c0,.17,0,.26-.09.26-.28,0-.34.14-.17.42,0,.05,0,.08,0,.08s0,0,0,.09l-.09.08c-.33.23-.45.4-.33.51s-.23.52-.68,1.06-1,1.1-1.52,1.69-1.14,1.15-1.74,1.69a9.18,9.18,0,0,1-1.31,1.06c-1.12.5-2.73.34-4.82-.51a.52.52,0,0,1-.34-.17,6.11,6.11,0,0,0-.71-.38l-.72-.3-.76-.76c-.68-.5-1-.84-1-1l-.42-.43c-.29-.11-.69-.66-1.23-1.65a14.26,14.26,0,0,1-1.23-3,7,7,0,0,1-.25-1.73,9.17,9.17,0,0,1,.34-2.16q.25-1.18-.21-.72A9.43,9.43,0,0,0,292,49.9a24.06,24.06,0,0,1-1.95,3.47,30.48,30.48,0,0,1-2.45,3.22A21.88,21.88,0,0,1,285.19,59a4.35,4.35,0,0,1-1.74,1,1.46,1.46,0,0,0-.5.13,1.34,1.34,0,0,0-.51.29,1.41,1.41,0,0,1-.85.13c-.39,0-.62-.1-.67-.21s-.34-.12-.68,0-.42.08-.42-.09-.17-.25-.51-.25a3.83,3.83,0,0,1-1.94-1,10.06,10.06,0,0,1-2.12-2.16,19.76,19.76,0,0,1-2.41-3.26,4.69,4.69,0,0,1-.55-2.83V48a4.44,4.44,0,0,1,.17-1.19,3.87,3.87,0,0,0,.21-1.14,8.24,8.24,0,0,1,.13-1.14c.06-.28.1-.51.13-.68s0-.28,0-.33a12.16,12.16,0,0,1,.34-1.65,10.49,10.49,0,0,1,.5-1.57,6.62,6.62,0,0,0,.3-.8c.14-.42.18-.55.13-.38a.35.35,0,0,1,0-.17.35.35,0,0,0,0-.17c.06-.22.1-.39.13-.51a1.27,1.27,0,0,0,0-.34c.06-.22.11-.33.17-.33a.59.59,0,0,1,0-.26.33.33,0,0,0,0-.17,1.76,1.76,0,0,1,.17-.42.52.52,0,0,1,.17-.34.57.57,0,0,0,.17-.42,1.41,1.41,0,0,0,.17-.59c0-.12.11-.26.34-.43a.88.88,0,0,0,.25-.67c-.05-.11,0-.17.09-.17q-.35-.42,0-.51c.34-.06.45-.25.34-.59-.12-.17,0-.26.25-.26a1.46,1.46,0,0,1,.13-.5,3.64,3.64,0,0,1,.21-.51c.34-.34.36-.51.08-.51l.34-.34a1.51,1.51,0,0,0,.51-1.26c-.17-.29-.17-.43,0-.43s.28-.19.5-.59a2.05,2.05,0,0,0,.34-.84,2.46,2.46,0,0,1,.17-.51c.11-.28.24-.57.38-.85l.38-.76c.12-.22.2-.31.26-.25.34.17.5.08.5-.26l.09-.17c.17.12.31.06.42-.17a1.42,1.42,0,0,0,.68-.25c.11-.11.17-.05.17.17l.51-.51C282.36,24.42,282.55,24.53,283,24.53Zm-6.09,6.68h.25c-.45.29-.63.38-.55.3Zm.67,17.51c-.11-.28-.19-.38-.25-.3a1.73,1.73,0,0,0-.08.72c0,.45,0,.71.08.76s.14,0,.25-.33Zm0,2.28c-.22-.45-.33-.34-.33.34s.11.88.33.42Zm2-9.38c.11-.62.07-.86-.13-.72a1.91,1.91,0,0,0-.46,1.14c-.12.73-.06,1,.17.76A2.42,2.42,0,0,0,279.48,41.62Zm.25-1a.52.52,0,0,0,.26-.34,1.59,1.59,0,0,0,.08-.42,2.66,2.66,0,0,0,0-.72s-.16.18-.38.63c-.34.85-.28,1.13.17.85Zm5.5-.42a1,1,0,0,1-.17.67,4.07,4.07,0,0,1-.34.72,1.12,1.12,0,0,0-.17.47c0-.06,0,0-.08.25a6.68,6.68,0,0,1-.25.76,3.16,3.16,0,0,0-.13.55,2.27,2.27,0,0,1-.21.64,12.76,12.76,0,0,0-.55,1.65c-.14.53-.24.94-.3,1.22a4.66,4.66,0,0,1-.17,1.19,1.37,1.37,0,0,0-.17.59c-.39,1.24-.33,1.66.17,1.27a1,1,0,0,0,.26-.76c0-.23,0-.37.08-.43a3,3,0,0,0,.17-.42,1.51,1.51,0,0,0,.08-.51c.06-.28.14-.67.26-1.18a10.66,10.66,0,0,1,.34-1.27,1.37,1.37,0,0,0,.17-.59,6.85,6.85,0,0,1,.21-1.06c.08-.31.18-.46.29-.46s.28-.14.17-.43a4.12,4.12,0,0,1,0-.42.65.65,0,0,1,.13-.34,3.52,3.52,0,0,0,.43-1c.05-.28.11-.57.16-.85s.09-.25.26-.25c0-.28.14-.65.25-1.1s.23-.68.34-.68.34-.14.34-.42.05-.25.17-.25c.39,0,.42-.17.08-.51l.25-.17c.12-.11.17-.4.17-.85l.34-1v.08c.34-.34.31-.5-.08-.5-.17,0-.2-.09-.09-.26l-.17-.08a2,2,0,0,0-.59,1.18,1.23,1.23,0,0,1-.42.85,1.52,1.52,0,0,0-.3.59,2.77,2.77,0,0,0-.12.76,2.2,2.2,0,0,1-.13.63,2.24,2.24,0,0,1-.3.64Zm-1.1-14.3c-.56,0-.62.15-.17.43a2.85,2.85,0,0,0,.59.34c.06,0,.09-.14.09-.43S284.47,25.88,284.13,25.88ZM296,51c-.34,0-.37.23-.08.68V51.6c.22.5.42.59.59.25a.34.34,0,0,0-.17-.42h.09a.08.08,0,0,1-.09-.09c.11-.11.11-.19,0-.25A.72.72,0,0,0,296,51Zm.17-4.23a4.22,4.22,0,0,1-.3.3.41.41,0,0,0-.12.3c0,.22.15.33.46.33a.49.49,0,0,0,.55-.42v-.84a10.35,10.35,0,0,1,.09-1.36c0-.28,0-.63,0-1s-.08-.61-.13-.55a.9.9,0,0,0-.25.67,1.31,1.31,0,0,0-.17.59,1.44,1.44,0,0,0-.09.6,1.77,1.77,0,0,0,.17,1v-.08C296.42,46.55,296.37,46.72,296.14,46.77Zm.42,1.7c0-.4-.14-.54-.42-.43a1.13,1.13,0,0,0-.13.55c0,.31,0,.64,0,1s0,.63,0,.88.07.38.13.38c.23,0,.34-.31.34-.93v-.84A1.58,1.58,0,0,1,296.56,48.47Zm-.42,5.58a.91.91,0,0,0,.47.46c.19.09.29.05.29-.12s-.11-.29-.34-.51-.45-.32-.5-.3S296,53.77,296.14,54.05Zm1.27-12.43a.51.51,0,0,0-.25-.43c-.12-.11-.22-.14-.3-.08a.29.29,0,0,0-.13.25.3.3,0,0,0,.34.34h.26A.07.07,0,0,0,297.41,41.62Zm-.34,1.52c.11-.11.11-.31,0-.59h-.17C296.79,43.17,296.84,43.36,297.07,43.14Zm.76-4a.62.62,0,0,0-.34.59c0,.4.06.57.17.51s.23-.28.34-.67a1.91,1.91,0,0,0,0-.39c0-.14-.1-.15-.21,0Zm3.05,10.41q-.09,0-.21.63c-.09.42-.16.89-.22,1.4s-.09,1-.12,1.43,0,.71,0,.76c.39.68.59.46.59-.67v-.93a8,8,0,0,1,.09-1.19V50C301.05,49.71,301,49.57,300.88,49.57Zm.42-.77c0-.5-.08-.78-.25-.84s-.26.14-.26.59c0,.62.09.93.26.93S301.41,49.26,301.3,48.8Zm.09-1.86c-.23,0-.34,0-.34.26s.05.49.17.46a.68.68,0,0,0,.33-.21.36.36,0,0,0-.08-.51ZM302.82,40c-.17,0-.27,0-.29.13s0,.18.12.29v-.08c.06.22.17.34.34.34s.17-.12.17-.34A.3.3,0,0,0,302.82,40Zm1.1,9.13c-.11-.11-.21-.12-.29,0a.39.39,0,0,0-.13.3c0,.22.11.33.34.33s.34-.08.34-.25a.26.26,0,0,0-.09-.17c-.06-.05-.1-.08-.13-.08s-.07,0-.12-.09Zm4.32,6.09a.69.69,0,0,0-.17.51c0,.28.05.41.17.38s.22-.21.33-.55.14-.45-.25-.34Zm.76-.84a1.11,1.11,0,0,0-.51.46c-.06.14.05.21.34.21A.29.29,0,0,0,309,55a1.48,1.48,0,0,0,.25-.34ZM310,53c-.22.23-.34.4-.34.51a.15.15,0,0,0,.17.17,1,1,0,0,0,.76-.76V53c.51-.79.72-1.17.64-1.14A9.85,9.85,0,0,0,310,53Z" transform="translate(-6.73 -3.54)"/><path class="cls-1" d="M363,41.78a.54.54,0,0,0,.42.17c-.28.91-.56,2-.84,3.26a6.85,6.85,0,0,0,0,3.43,9.9,9.9,0,0,1-1.53.33,10.2,10.2,0,0,1-1.35.09,5.43,5.43,0,0,1-3.85-1.31,6.21,6.21,0,0,1-1.82-3,5.07,5.07,0,0,1-.12-1.56c0-.65.08-1.32.17-2s.19-1.4.33-2.07a9.49,9.49,0,0,1,.47-1.61l.25-.59c.06-.11.13-.27.22-.47s.15-.35.21-.46a2.14,2.14,0,0,1,.17-.42q0-.26-.93.42c-.63.45-1.36,1-2.2,1.73a34.39,34.39,0,0,0-2.54,2.37,11.28,11.28,0,0,0-1.86,2.41q-1.69,3.13-2.75,5.46c-.71,1.55-1.27,2.93-1.69,4.14a28.32,28.32,0,0,0-1,3.38q-.34,1.58-.6,3.09a.35.35,0,0,1,0,.17.35.35,0,0,0,0,.17,3.23,3.23,0,0,1-.42,1.27c-.17.22-.65.28-1.44.17a9.13,9.13,0,0,1-2.37-.55,26.35,26.35,0,0,1-2.54-1.1,21.16,21.16,0,0,1-2.32-1.36A16.64,16.64,0,0,1,331.32,56a3.17,3.17,0,0,1-.76-2.53,24.85,24.85,0,0,1,.85-5.71c.56-2.29,1.18-4.47,1.86-6.56s1.3-3.86,1.86-5.33a13.1,13.1,0,0,1,.93-2.19,7.07,7.07,0,0,1,.08-.72,8,8,0,0,1,.3-1.19c.14-.42.27-.79.38-1.1s.23-.46.34-.46.34-.17.34-.51a4,4,0,0,1,.55-1.48c.36-.7.72-1.37,1.05-2l.68-1.35a2.49,2.49,0,0,1,2.37-1.18,9.23,9.23,0,0,1,3.13.71,22.49,22.49,0,0,1,3.64,1.82.66.66,0,0,0,.42.26,11.53,11.53,0,0,1,1.14.8,1.49,1.49,0,0,1,.47,1.23.57.57,0,0,1-.17.42,5.85,5.85,0,0,0-.47,1c-.2.48-.41,1-.63,1.61s-.46,1.21-.68,1.86-.42,1.2-.59,1.65l.17.08a28.26,28.26,0,0,1,2.62-3.76c1-1.16,1.9-2.21,2.83-3.17a27.38,27.38,0,0,1,2.67-2.45c.84-.68,1.52-1.19,2-1.53a3.39,3.39,0,0,1,2.74.17,11.32,11.32,0,0,1,3.13,1.95A10.68,10.68,0,0,1,367,29.23a4.41,4.41,0,0,1,.6,3.17v-.09c-.17.28-.33.55-.47.81a3.28,3.28,0,0,0-.29.63,1.33,1.33,0,0,0-.3.42.63.63,0,0,1-.38.34c-.17.4-.06.54.34.42-.12.12-.2.17-.26.17s-.25.14-.25.43a.57.57,0,0,1,0,.25.37.37,0,0,0,0,.17c-.11.11-.19.14-.25.08h.09c-.06-.05-.15,0-.26.13a1.91,1.91,0,0,0-.29.59,6.88,6.88,0,0,0-.21.72,2.62,2.62,0,0,0-.09.42c0,.29-.11.4-.34.34l-.17.85-.34,1.35-.33,1a.93.93,0,0,0-.68-.26.53.53,0,0,0-.13.26A.34.34,0,0,0,363,41.78Zm-27-3.21c.17-.11.22-.31.17-.59s-.2-.42-.42-.42-.33.33-.64,1a10,10,0,0,0-.63,1.69,2.72,2.72,0,0,1-.17.76,1.31,1.31,0,0,0-.17.43,2.83,2.83,0,0,0-.17.84c0,.17-.06.26-.17.26a.59.59,0,0,0-.34.12q-.16.13,0,.3a1.78,1.78,0,0,1-.08.89L333,45.51l-.34,1.18-.6,2.45c-.33,2.26-.33,3.61,0,4.06s.53.72.55.64a4.26,4.26,0,0,0-.21-1.15c-.17-.39-.11-.67.17-.84a1.41,1.41,0,0,0,.26-.76c0-.4.19-1.41.42-3.05.05-.28.1-.55.13-.8a1.08,1.08,0,0,0,0-.55,1.39,1.39,0,0,1,.17-.85c.28-.11.43-.5.43-1.18a6.79,6.79,0,0,1,.29-1.23c.14-.42.38-1,.72-1.81a1.61,1.61,0,0,0,.17-.43l.34-.67c-.06,0-.17-.09-.34-.26a2.06,2.06,0,0,0,.21-.21c.09-.08.1-.13,0-.13.23,0,.34-.22.34-.67a1.61,1.61,0,0,1,.17-.43.58.58,0,0,0,.09-.25Zm-3.3,10.66c-.22.22-.25-.06-.08-.85.17.34.19.59.08.76Zm.17-1c.11-.34.2-.6.25-.8s.09-.07.09.38a.71.71,0,0,1-.17.51Zm0,.43c.17-.17.27-.24.3-.22a1.12,1.12,0,0,1-.13.47Zm2,9.72c.39.28.62.41.68.38s0-.24-.17-.63a.71.71,0,0,0-.51-.17Q334.54,57.94,335,58.36Zm5.84-31.71c.22-.57.29-.82.21-.77a3.39,3.39,0,0,0-.55.77c-.23.22-.34.39-.34.5v-.08c-.11-.11-.21-.1-.3,0a1.12,1.12,0,0,0-.12.55,1.2,1.2,0,0,1-.13.51.64.64,0,0,1-.38.34,1.17,1.17,0,0,0-.21.33,1.07,1.07,0,0,0-.13.51,1.58,1.58,0,0,1-.08.59.33.33,0,0,1,0,.22.19.19,0,0,0,0,.12c0,.23-.08.26-.25.09h.08c-.11-.12-.21-.13-.29-.05s-.1.24-.05.47a2.16,2.16,0,0,1-.59,1.61c-.11.11-.22.24-.34.38a.26.26,0,0,0,0,.38c.12.11.06.28-.16.51a6.86,6.86,0,0,0-.34.76,1.75,1.75,0,0,0-.17.59L336,36.29l-.51.93q0,.59.93,0a4,4,0,0,0,.34-.76.8.8,0,0,1,.42-.51,1.55,1.55,0,0,0,.17-.68c-.12-.22,0-.45.25-.67a1.7,1.7,0,0,0,.26-1,1.29,1.29,0,0,1,.42-.93.76.76,0,0,0,.21-.38,1.42,1.42,0,0,1,.13-.38,1.29,1.29,0,0,0,.34-.93,2,2,0,0,1,.42-.93h-.09c.23-.17.29-.31.17-.42.28-.12.43-.26.43-.43a1.54,1.54,0,0,1,.16-.42.83.83,0,0,1,.05-.34.33.33,0,0,0,0-.17l.17-.17a.51.51,0,0,0,.08-.33.17.17,0,0,1,.05-.13.22.22,0,0,0,0-.13,1.23,1.23,0,0,1,.17-.51Zm-2.63,26.47q.43-.25,0-1v.09c-.22-.45-.35-.67-.38-.64a4.75,4.75,0,0,0,0,1C337.75,53.37,337.89,53.57,338.17,53.12Zm1,4.9c.28.23.48.3.59.21s0-.23-.25-.46-.67-.41-.81-.38a.87.87,0,0,0-.46.38l1,.25Zm-.59,1.44c.17-.05.25-.31.25-.76s-.08-.51-.25-.51-.26.23-.26.68S338.43,59.46,338.6,59.46Zm5.16-12.35c.17,0,.19-.28.08-.67-.34.79-.34,1,0,.67Zm.17,2.29q.33,0,.33-.51c0-.28-.08-.42-.25-.42s-.08,0-.08.08l-.17.34C343.64,49.23,343.7,49.4,343.93,49.4Zm1-1.44a1.77,1.77,0,0,0,.34-.93c-.34.22-.54.31-.59.25s-.26.17-.26.51C344.43,48.52,344.6,48.58,344.94,48Zm.85-1.61c0-.28,0-.41-.26-.38a.64.64,0,0,0-.5.47c-.12.33,0,.45.25.33S345.62,46.63,345.79,46.35Zm.42-1c.11-.34,0-.45-.26-.34a3,3,0,0,0-.33.21.34.34,0,0,0-.17.3c-.23.33-.14.45.25.33a1.57,1.57,0,0,0,.34-.21A.36.36,0,0,0,346.21,45.34Zm-.59-5.75c-.12.33-.07.43.12.29a1.42,1.42,0,0,0,.47-.8c.05-.17.2-.55.42-1.14s.47-1.24.72-1.95.51-1.38.76-2l.55-1.39c0-.23-.05-.34-.17-.34a.3.3,0,0,0-.34.34v.16c-.16,0-.25.12-.25.34l-.25.76a.17.17,0,0,1,0,.13.22.22,0,0,0,0,.13V34a1,1,0,0,0-.21.3c0,.08,0,.13.13.13s-.06.14-.17.25-.28.4-.17.51,0,.08-.09.08c-.28,0-.33.14-.16.42,0,.17,0,.26-.09.26a2.8,2.8,0,0,0-.42,1.35l-.51,1.52a.17.17,0,0,1,0,.13.17.17,0,0,0,0,.13A1.15,1.15,0,0,0,345.62,39.59Zm2.62,2.19a.2.2,0,0,0,.21-.12c0-.09-.07-.18-.3-.3s-.5,0-.5.26a.22.22,0,0,1-.09.16,2.46,2.46,0,0,0-.17.22,1.2,1.2,0,0,1-.17.21l-.25.42c-.45.56-.62,1-.51,1.18a.45.45,0,0,1-.17.34h-.08c-.45.29-.48.43-.09.43a1.37,1.37,0,0,0,.93-.51,2.14,2.14,0,0,0,.51-.93,1.62,1.62,0,0,1,0-.38.76.76,0,0,0,0-.21c0-.17.11-.26.34-.26Zm.42-.59.09-.08c.22-.06.33-.17.33-.34h-.16a.33.33,0,0,1-.17,0,.38.38,0,0,0-.17,0c-.29,0-.43.11-.43.33s.14.34.43.17Zm-.25-5.58c.62-.84.86-1.21.72-1.1s-.44.4-.89.85Zm.17-4.06a.82.82,0,0,0-.17.47c0,.14,0,.21.17.21s.24-.16.38-.47.26-.6.38-.89l.34-.88c.11-.31.11-.52,0-.64s-.34-.11-.34.34a.71.71,0,0,1-.42.59c-.29.28-.34.51-.17.68a3,3,0,0,1-.17.68Zm.5,8.8c.34,0,.45-.14.34-.43a1.09,1.09,0,0,0-.5.09Zm.43-.76c.17,0,.25-.06.25-.17s0-.17,0-.17,0,0,0-.09q-.6-.16-.6.09C349.08,39.47,349.22,39.59,349.51,39.59Zm6.17-.77q-.09,0-.21.6c-.08.39-.17.83-.25,1.31s-.16.93-.22,1.35a2,2,0,0,0,0,.8q.25.25.51-.84l.34-1.95C356,39.25,355.91,38.82,355.68,38.82Zm.26-.17c-.12.06-.2.06-.26,0,.11.46.26.46.42,0Zm.16,0a.33.33,0,0,1,0-.16.78.78,0,0,0,0-.26A.93.93,0,0,0,356.1,38.65Zm.51-1.86a.61.61,0,0,0-.17-.42c-.17-.11-.27-.11-.29,0a.45.45,0,0,0,0,.34C356.08,37.16,356.22,37.19,356.61,36.79Zm8.21-2.7c-.06,0-.19.2-.38.59s-.4.83-.6,1.31-.38.93-.55,1.35a3.19,3.19,0,0,0-.25.81c.22.45.48.25.76-.59l.76-2.12c.11-.34.2-.65.26-.93S364.87,34.09,364.82,34.09Zm-1.27,7.78c.05,0,.08,0,.08-.09a.68.68,0,0,1,.09-.33c.33.33.31.5-.09.5Zm1.94-8.63c.17-.45.17-.7,0-.76s-.31.14-.42.59-.06.85,0,.85a.52.52,0,0,0,.34-.17A.5.5,0,0,0,365.49,33.24Zm.68-1.77c-.23-.06-.34,0-.34.17-.17.28-.23.48-.17.59s.25,0,.59-.26a.37.37,0,0,0,.09-.29C366.34,31.54,366.28,31.47,366.17,31.47Z" transform="translate(-6.73 -3.54)"/><path class="cls-1" d="M393.4,34.09a10.88,10.88,0,0,1-1.35,4.06,11.09,11.09,0,0,1-2.92,3.34,12.92,12.92,0,0,1-4.23,2.11,12.6,12.6,0,0,1-5.2.38,3.29,3.29,0,0,0-.55,1.06c-.2.54-.38,1.1-.55,1.69a13.69,13.69,0,0,0-.38,1.65,2.13,2.13,0,0,0,0,.93,3.84,3.84,0,0,0,.25,1.06c.11.25.51.32,1.19.21A17.15,17.15,0,0,0,383.38,49a48.89,48.89,0,0,0,4.52-2.83c1.58-1.1,3.18-2.28,4.78-3.55s3.12-2.53,4.53-3.77a7.32,7.32,0,0,1,2.62-1.64,1.09,1.09,0,0,1,1.35.63,1.44,1.44,0,0,1,.3,1.06,7.15,7.15,0,0,1-1.57,2.58c-.79,1.12-1.55,2.14-2.28,3s-1.48,1.79-2.24,2.66-1.57,1.75-2.41,2.63-1.78,1.84-2.79,2.91a4.87,4.87,0,0,1-.81.64l-.88.55-.68.59a2.78,2.78,0,0,0-.89.51l-1.65,1.18A15.44,15.44,0,0,1,383,57.81a23.75,23.75,0,0,1-3,1.57,15.22,15.22,0,0,1-3.13,1,4.63,4.63,0,0,1-2.75-.21c-.34-.12-.86-.33-1.57-.64a22.88,22.88,0,0,1-2.28-1.18,17,17,0,0,1-2.33-1.65,8.58,8.58,0,0,1-1.77-2A10.42,10.42,0,0,1,364.73,49a20.6,20.6,0,0,1,1.48-7.35,36.17,36.17,0,0,1,3.85-7.4,30.81,30.81,0,0,1,5.41-6.14,17.24,17.24,0,0,1,6.09-3.55,13.06,13.06,0,0,1,3.13-.42,8,8,0,0,1,4.4,1.1c.34.28.77.69,1.31,1.22A11.37,11.37,0,0,1,393.11,31,7.8,7.8,0,0,1,393.4,34.09ZM368.87,55c.23-.23.14-.45-.25-.68h.08c-.45-.28-.7-.35-.76-.21s.09.38.43.72v-.09c.11.4.28.46.5.17Zm2.2-10.15a2.88,2.88,0,0,0,.05.8s.15-.12.38-.46.25-.71.08-.93-.35-.14-.38-.09A4.3,4.3,0,0,0,371.07,44.83Zm.51-10.74c-.06.06-.08.22-.08.51L373,33.33c-.11.28,0,.22.21-.17s.44-.68.55-.85c.45-.45.65-.7.59-.76l.17-.17h-.08l.33-.34.34-.25h-.08l.76-.42.42-.43a2.36,2.36,0,0,0,.43-.59,1.08,1.08,0,0,1,.16-.25h-.08a2.59,2.59,0,0,0,.72-.64,3.46,3.46,0,0,0,.38-.55l.51-.42c.22,0,.34-.14.34-.25s.05-.17.16-.17a.27.27,0,0,0,.34-.09c.11-.11.09-.19-.08-.25h.08c-.22-.17-.38-.24-.46-.21a1.33,1.33,0,0,0-.38.29l-.43.34a.9.9,0,0,0-.67.26c-.06.28-.14.42-.26.42s-.18,0-.21,0a.16.16,0,0,1-.12,0h-.17a1.4,1.4,0,0,1-.64,1,1.93,1.93,0,0,1-.89.51q-.16,0-.21.21a1.55,1.55,0,0,0,0,.29c.11,0,.06.13-.17.38a1.9,1.9,0,0,1-.76.55.92.92,0,0,0-.25.68,1.84,1.84,0,0,0-.34.47c-.12.19-.2.35-.26.46V32.4a12,12,0,0,0-.93,1A4.18,4.18,0,0,0,371.58,34.09Zm0,8.88c0,.62.11.7.34.25a1.58,1.58,0,0,1,.08-.59C371.83,42.29,371.69,42.41,371.58,43Zm.85-1.19c.28-.45.35-.7.21-.76s-.36.09-.64.43-.42.59-.08.59A.74.74,0,0,0,372.43,41.78Zm.5-1.86a.59.59,0,0,0,.43-.59l-.76.34a.44.44,0,0,0,.12.3c.09.08.19.07.3,0ZM377,48.55c.17-.06.31-.28.43-.68s-.09-.5-.43-.17a2.18,2.18,0,0,0-.33.89c0,.2.14.19.42,0Zm1.44,10.23c-1,.17-1.58.34-1.69.51s.31.23,1.27.17q1.19,0,1.35-.42C379.53,58.64,379.22,58.56,378.43,58.78Zm1.27,0c-.17.4-.08.51.25.34s.6-.31.6-.59-.05-.47-.3-.38A.91.91,0,0,0,379.7,58.78Zm1.69-1.09c-.39-.12-.62-.13-.68,0a1,1,0,0,0,0,.55c.12.57.4.68.85.34h-.08a3.67,3.67,0,0,0,1.1-.68l.08-.16c.06.11.17.09.34,0s.39-.35.67-.63a3.07,3.07,0,0,0,.85-1.23q.17-.54-.51-.21c-.45.11-.5.28-.17.51.12.11,0,.31-.25.59a1.21,1.21,0,0,1-.85.42c-.28,0-.45.17-.5.51v-.08C382.12,57.74,381.84,57.8,381.39,57.69Zm.85-18.36c-.17.17-.14.23.08.17a3.7,3.7,0,0,0,.89-.38c.37-.2.76-.42,1.18-.68a5.15,5.15,0,0,0,1.06-.8,7.41,7.41,0,0,0,1-1.1c.45-.56.84-1.1,1.18-1.61a6.4,6.4,0,0,0,.68-1.22c.11-.31,0-.35-.43-.13-.22.17-.57.45-1,.85s-1,.86-1.57,1.39-1.13,1.12-1.69,1.74A11.9,11.9,0,0,0,382.24,39.33Zm2.79,16c-.23.45-.24.63,0,.55a7.08,7.08,0,0,0,1.22-1l1-.93-.17-.17-.85.6a4.47,4.47,0,0,0-.72.46A1.59,1.59,0,0,0,385,55.32Zm2.79-14.47a10.22,10.22,0,0,0,1.31-1.1c.53-.5,1-1,1.44-1.48s.73-.84.93-1.09.15-.27-.13,0h.09l-1.27.76-3.47,3-.34.38c-.11.15-.2.19-.25.13a.25.25,0,0,0-.3,0,1.61,1.61,0,0,0-.21.3c-.06.28.13.37.55.25A4.44,4.44,0,0,0,387.82,40.85ZM386.13,25c-.29.28-.2.42.25.42a.53.53,0,0,0,.51-.34c0-.22-.09-.34-.25-.34A.74.74,0,0,0,386.13,25Zm.34,28.33c-.29.17-.44.33-.47.47s0,.21.21.21.26,0,.26,0,0-.07.08-.13.23-.25.51-.25c.11,0,.25,0,.42-.17,0-.29-.1-.44-.29-.47S386.75,53.09,386.47,53.37Zm1.6-1.35q-.68.93-.21.93a2.13,2.13,0,0,0,1.23-.76,1.54,1.54,0,0,0,.51-1.1c-.12-.28-.2-.43-.26-.43s-.2.12-.42.34a1.8,1.8,0,0,0-.47.51A2.39,2.39,0,0,1,388.07,52Zm2.12-.93.17.08.67-.76a1.9,1.9,0,0,0,.47-.68c.08-.22.07-.36,0-.42h.08a.27.27,0,0,1-.08-.34c-.46-.33-.82.09-1.1,1.27Zm2.62-3.47c.11,0,0,.23-.25.68a2.33,2.33,0,0,0,.84-.76c0-.17-.17-.26-.51-.26Zm1.86-1.86c-.06-.06-.2,0-.42.25a2.68,2.68,0,0,0-.51.68q0,.42.51,0a1.87,1.87,0,0,0,.46-.59A.45.45,0,0,0,394.67,45.76Zm.93-1.69a9.78,9.78,0,0,0-.72.8,4.73,4.73,0,0,0-.38.55c0,.11.08.14.25.09a1.12,1.12,0,0,0,.51-.51l.85-.85q.25,0,.51-.42c.22-.28.22-.39,0-.34A3,3,0,0,0,395.6,44.07Z" transform="translate(-6.73 -3.54)"/><path class="cls-1" d="M414,53.12a6.83,6.83,0,0,1-.93,3.76,12.22,12.22,0,0,1-2.54,3,14.54,14.54,0,0,1-3.34,2.15,11,11,0,0,1-3.43,1,20.72,20.72,0,0,1-3.47,0,15.94,15.94,0,0,1-3.8-.72,10.73,10.73,0,0,1-3.47-1.86,8.78,8.78,0,0,1-2.54-3.38,5.13,5.13,0,0,1,0-2.84,12.53,12.53,0,0,1,1-2.79,5.61,5.61,0,0,1,1.39-1.82c.51-.39.9-.33,1.19.17a6.37,6.37,0,0,0,1.86,2,9.43,9.43,0,0,0,2.79,1.48,3.76,3.76,0,0,0,2.54,0c.73-.28,1.1-1.07,1.1-2.37a7.3,7.3,0,0,0-.89-2.79,14.81,14.81,0,0,0-2.58-3.3,19.81,19.81,0,0,1-3.09-3.59,7.42,7.42,0,0,1-1.06-3.68,10.92,10.92,0,0,1,1.15-5.45,22.74,22.74,0,0,1,8-9.14,16.22,16.22,0,0,1,5-2.24,5.43,5.43,0,0,1,2.7.21,14.5,14.5,0,0,1,3.22,1.4,15,15,0,0,1,2.92,2.2,8.45,8.45,0,0,1,1.9,2.62c.11.45.21.9.29,1.35A8.38,8.38,0,0,1,420,30.2a19.14,19.14,0,0,1-.25,3.89,18.91,18.91,0,0,1-1.1,4,14.46,14.46,0,0,1-1.86,3.34,4.48,4.48,0,0,1-2.54,1.77,6.7,6.7,0,0,1-2.71-.55,8.2,8.2,0,0,1-2.11-1.27A4.7,4.7,0,0,1,408.28,40q-.33-.67.09-.93a3.08,3.08,0,0,0,1.31-1.19,9.66,9.66,0,0,0,.93-1.81,12.6,12.6,0,0,0,.59-1.91,7.15,7.15,0,0,0,.21-1.52,3.26,3.26,0,0,0,0-1.31c-.08-.2-.41-.07-1,.38A12.11,12.11,0,0,0,408,34.43a16.41,16.41,0,0,0-1.61,3,10,10,0,0,0-.72,2.66,2.64,2.64,0,0,0,.3,1.82l1.6,2.11,1.19,1.19v-.09l.42.85.51.42c1,1,1.9,2,2.83,3.13A6.6,6.6,0,0,1,414,53.12Zm-21.82,4.73a3.67,3.67,0,0,0,.59.81c.28.31.58.6.89.89a7.88,7.88,0,0,0,.84.67,1.31,1.31,0,0,0,.55.26,1.75,1.75,0,0,0-.42-.72,10.23,10.23,0,0,0-.93-1.06A9.47,9.47,0,0,0,392.13,57Q391.71,56.76,392.22,57.85ZM397.29,32c-.11.12-.2.16-.25.13a.38.38,0,0,0-.17,0,.08.08,0,0,1-.09-.09h-.17l-.5,1v.59c0,.11.05.16.17.13a.2.2,0,0,0,.17-.21,1.54,1.54,0,0,1,.29-.51c.2-.28.41-.56.63-.85Zm2.2-3.8c-.06,0-.08-.11-.08-.34l-.85,1.27.59-.26.42-.5ZM401,25.88l-.51.51-.33.68.16.42.68-.76.34-.42-.08-.34Zm1.61-1.18-.59.17-.51.51a2,2,0,0,0-.34.42l.51.17.51-.59a.66.66,0,0,0,.67-.51V25c.12-.11.2-.17.26-.17l.33-.33a.28.28,0,0,0,.09-.34.17.17,0,0,0-.25-.09c-.23,0-.4.15-.51.43Zm-.59.17a.28.28,0,0,1,.25.17c.06.11,0,.22-.08.34a.28.28,0,0,1-.17-.51Zm.67-.25.17.08v.08Zm.76-.26c-.11.34-.15.5-.12.47l.29-.38a.26.26,0,0,0,.09-.17c0-.06,0-.14.17-.26l-.17-.25a1.08,1.08,0,0,0-.26.51Zm.94-1.27a.41.41,0,0,0-.43.34v.34l.93-.34c-.22-.11-.31-.2-.25-.25l-.09-.17Zm.33,18.19c-.22-.23-.33-.14-.33.25s0,.44.08.47a1.08,1.08,0,0,0,.34,0c.22,0,.25-.14.08-.42Zm.93,18.1a1.85,1.85,0,0,1-1.1,0v.17l.51.33a1.57,1.57,0,0,0,.34-.21.3.3,0,0,1,.34,0Zm-.33-23.09-.09.17-.25.33-.17.34a2.31,2.31,0,0,0-.17.51v.42h.17a2.62,2.62,0,0,1,.21-.55,7.49,7.49,0,0,0,.38-1h0l.34-.68Zm.5-.43v-.08a.32.32,0,0,1,.09-.25l-.17-.09-.26.51Zm-.17,23.69a3.9,3.9,0,0,0,1.36-.26v-.17a1.13,1.13,0,0,1-.51-.08,1.19,1.19,0,0,1-.85.34Zm1.27-25a1.34,1.34,0,0,1,.59-.76l.26-.17-.09-.17a2.79,2.79,0,0,0-1,.81,5.46,5.46,0,0,0-.8,1.14l.17.08Zm.34,10.07a1.59,1.59,0,0,0-.08.84.57.57,0,0,0,.25.26c.22.11.34,0,.34-.34a5.7,5.7,0,0,1-.17-.76Zm.42,1.26h.17l-.08-.25-.17.09Zm.43-12.77.67-.84a.66.66,0,0,0-.17-.51l-.84.93c.05.28.11.42.17.42Zm.76,13.62a.84.84,0,0,0-.6-.68c-.33-.11-.45,0-.33.34l.5.85Zm-.34,12.86-.34.42h.08a.14.14,0,0,0-.12.08.14.14,0,0,1-.13.09v.08l1-.59v-.17Zm2.54-2.2-.85.42-.59.42c.05.17.11.37.17.59l.67-.5.6-.59Zm1.26-1.53a.93.93,0,0,0,.43-.33.79.79,0,0,0,.08-.26c.11-.34-.05-.39-.51-.17l-.08.17-.25.26a1.92,1.92,0,0,0-.6.93v-.09l-.42.59.17.6a1,1,0,0,0,.34-.34,2.58,2.58,0,0,1,.34-.43l.5-.84Zm-.42.68a.29.29,0,0,1-.29.17c-.15,0-.19-.14-.13-.42.28-.06.42,0,.42.17Zm.76-1.52a.14.14,0,0,0,.13-.09.14.14,0,0,1,.13-.08l-.09-.17-.42.25v.17Zm.93-1,.09-.25-.09-.51-.76,1.27h.59a.74.74,0,0,0,.26-.51Zm2.54-21.48c-.28,0-.54.31-.76.93l-.59,2a1.52,1.52,0,0,0-.09.51v.17l.17-.09a6.88,6.88,0,0,0,.26-.67c.11-.34.25-.71.42-1.1s.36-.85.59-1.36Z" transform="translate(-6.73 -3.54)"/><path class="cls-1" d="M446.51,34.09a11,11,0,0,1-4.27,7.4A12.92,12.92,0,0,1,438,43.6a12.59,12.59,0,0,1-5.2.38,3.29,3.29,0,0,0-.55,1.06c-.2.54-.38,1.1-.55,1.69a15.91,15.91,0,0,0-.38,1.65,2.13,2.13,0,0,0,0,.93,3.84,3.84,0,0,0,.25,1.06c.12.25.51.32,1.19.21A17.15,17.15,0,0,0,436.49,49,50.34,50.34,0,0,0,441,46.14c1.57-1.1,3.17-2.28,4.77-3.55s3.12-2.53,4.53-3.77a7.41,7.41,0,0,1,2.62-1.64,1.09,1.09,0,0,1,1.35.63,1.44,1.44,0,0,1,.3,1.06A7.22,7.22,0,0,1,453,41.45c-.8,1.12-1.56,2.14-2.29,3s-1.48,1.79-2.24,2.66-1.56,1.75-2.41,2.63-1.78,1.84-2.79,2.91a4.87,4.87,0,0,1-.81.64l-.88.55-.68.59A2.78,2.78,0,0,0,440,55l-1.65,1.18a15.44,15.44,0,0,1-2.28,1.65,23.75,23.75,0,0,1-3,1.57,15.22,15.22,0,0,1-3.13,1,4.63,4.63,0,0,1-2.75-.21c-.34-.12-.86-.33-1.57-.64a22.88,22.88,0,0,1-2.28-1.18,16.28,16.28,0,0,1-2.32-1.65,8.41,8.41,0,0,1-1.78-2A10.42,10.42,0,0,1,417.84,49a20.82,20.82,0,0,1,1.48-7.35,36.17,36.17,0,0,1,3.85-7.4,30.81,30.81,0,0,1,5.41-6.14,17.24,17.24,0,0,1,6.09-3.55,13.06,13.06,0,0,1,3.13-.42,8,8,0,0,1,4.4,1.1c.34.28.77.69,1.31,1.22A11.37,11.37,0,0,1,446.22,31,7.62,7.62,0,0,1,446.51,34.09ZM422,55c.22-.23.14-.45-.26-.68h.09c-.45-.28-.71-.35-.76-.21s.08.38.42.72v-.09c.11.4.28.46.51.17Zm2.19-10.15a2.88,2.88,0,0,0,.05.8s.15-.12.38-.46.25-.71.08-.93-.35-.14-.38-.09A4.3,4.3,0,0,0,424.18,44.83Zm.51-10.74a1,1,0,0,0-.08.51l1.52-1.27c-.11.28,0,.22.21-.17l.55-.85c.45-.45.65-.7.59-.76l.17-.17h-.08l.34-.34.33-.25h-.08l.76-.42.42-.43a2.36,2.36,0,0,0,.43-.59.84.84,0,0,1,.17-.25h-.09a2.59,2.59,0,0,0,.72-.64,3.46,3.46,0,0,0,.38-.55l.51-.42c.22,0,.34-.14.34-.25a.15.15,0,0,1,.17-.17q.16.09.33-.09c.12-.11.09-.19-.08-.25h.08c-.22-.17-.38-.24-.46-.21a1.33,1.33,0,0,0-.38.29l-.43.34a.9.9,0,0,0-.67.26c-.06.28-.14.42-.25.42s-.19,0-.22,0a.16.16,0,0,1-.12,0h-.17a1.37,1.37,0,0,1-.64,1,2,2,0,0,1-.88.51c-.12,0-.19.07-.22.21a1.55,1.55,0,0,0,0,.29c.11,0,.06.13-.17.38a1.9,1.9,0,0,1-.76.55.92.92,0,0,0-.25.68,1.84,1.84,0,0,0-.34.47c-.11.19-.2.35-.25.46V32.4a9.29,9.29,0,0,0-.93,1A4.26,4.26,0,0,0,424.69,34.09Zm0,8.88c0,.62.11.7.34.25a1.36,1.36,0,0,1,.09-.59C425,42.29,424.8,42.41,424.69,43Zm.85-1.19c.28-.45.35-.7.21-.76s-.35.09-.63.43-.43.59-.09.59A.74.74,0,0,0,425.54,41.78Zm.51-1.86a.6.6,0,0,0,.42-.59l-.76.34a.44.44,0,0,0,.12.3c.09.08.19.07.3,0Zm4.06,8.63c.16-.06.3-.28.42-.68s-.09-.5-.42-.17a2.09,2.09,0,0,0-.34.89c0,.2.14.19.42,0Zm1.43,10.23c-1,.17-1.58.34-1.69.51s.31.23,1.27.17q1.19,0,1.35-.42C432.64,58.64,432.33,58.56,431.54,58.78Zm1.27,0c-.17.4-.08.51.26.34s.59-.31.59-.59,0-.47-.3-.38A.91.91,0,0,0,432.81,58.78Zm1.69-1.09c-.39-.12-.62-.13-.67,0a.81.81,0,0,0,0,.55c.11.57.39.68.84.34h-.08a3.67,3.67,0,0,0,1.1-.68l.08-.16c.06.11.17.09.34,0s.39-.35.68-.63a3.13,3.13,0,0,0,.84-1.23c.11-.36-.05-.43-.51-.21s-.5.28-.16.51c.11.11,0,.31-.26.59a1.21,1.21,0,0,1-.84.42q-.44,0-.51.51v-.08C435.24,57.74,435,57.8,434.5,57.69Zm.85-18.36c-.17.17-.14.23.08.17a3.7,3.7,0,0,0,.89-.38c.37-.2.76-.42,1.19-.68a5.35,5.35,0,0,0,1.05-.8,6.9,6.9,0,0,0,1-1.1c.45-.56.84-1.1,1.18-1.61a6.4,6.4,0,0,0,.68-1.22c.11-.31,0-.35-.42-.13-.23.17-.58.45-1.06.85s-1,.86-1.57,1.39-1.13,1.12-1.69,1.74A11.9,11.9,0,0,0,435.35,39.33Zm2.79,16c-.23.45-.24.63,0,.55a7.08,7.08,0,0,0,1.22-1l1-.93-.17-.17-.85.6a4.47,4.47,0,0,0-.72.46A1.74,1.74,0,0,0,438.14,55.32Zm2.79-14.47a10.22,10.22,0,0,0,1.31-1.1,19.71,19.71,0,0,0,1.44-1.48c.42-.47.73-.84.93-1.09s.15-.27-.13,0h.09l-1.27.76-3.47,3-.34.38c-.11.15-.2.19-.25.13a.26.26,0,0,0-.3,0,1.61,1.61,0,0,0-.21.3c-.06.28.13.37.55.25A4.44,4.44,0,0,0,440.93,40.85ZM439.24,25c-.28.28-.2.42.25.42a.53.53,0,0,0,.51-.34c0-.22-.08-.34-.25-.34A.74.74,0,0,0,439.24,25Zm.34,28.33c-.29.17-.44.33-.47.47s0,.21.21.21.26,0,.26,0,0-.07.08-.13.23-.25.51-.25c.11,0,.25,0,.42-.17,0-.29-.1-.44-.29-.47S439.86,53.09,439.58,53.37Zm1.6-1.35q-.68.93-.21.93a2.13,2.13,0,0,0,1.23-.76,1.54,1.54,0,0,0,.51-1.1c-.12-.28-.2-.43-.26-.43s-.2.12-.42.34a1.64,1.64,0,0,0-.46.51A2.76,2.76,0,0,1,441.18,52Zm2.12-.93.17.08.67-.76a1.78,1.78,0,0,0,.47-.68c.08-.22.07-.36,0-.42h.08a.27.27,0,0,1-.08-.34c-.45-.33-.82.09-1.1,1.27Zm2.62-3.47c.11,0,0,.23-.25.68a2.33,2.33,0,0,0,.84-.76c0-.17-.17-.26-.51-.26Zm1.86-1.86c-.06-.06-.2,0-.42.25a2.68,2.68,0,0,0-.51.68q0,.42.51,0a1.87,1.87,0,0,0,.46-.59A.45.45,0,0,0,447.78,45.76Zm.93-1.69a9.78,9.78,0,0,0-.72.8,4.73,4.73,0,0,0-.38.55c0,.11.09.14.26.09a1.15,1.15,0,0,0,.5-.51l.85-.85q.25,0,.51-.42c.22-.28.22-.39,0-.34A3,3,0,0,0,448.71,44.07Z" transform="translate(-6.73 -3.54)"/><path class="cls-1" d="M475.69,41.78a.54.54,0,0,0,.42.17c-.28.91-.56,2-.84,3.26a7.09,7.09,0,0,0,0,3.43,9.8,9.8,0,0,1-1.52.33,10.47,10.47,0,0,1-1.36.09,5.43,5.43,0,0,1-3.85-1.31,6.12,6.12,0,0,1-1.81-3,4.74,4.74,0,0,1-.13-1.56c0-.65.08-1.32.17-2a19.85,19.85,0,0,1,.34-2.07,8.74,8.74,0,0,1,.46-1.61l.26-.59.21-.47c.08-.19.15-.35.21-.46a2.14,2.14,0,0,1,.17-.42q0-.26-.93.42c-.62.45-1.36,1-2.2,1.73a34.39,34.39,0,0,0-2.54,2.37,11.62,11.62,0,0,0-1.86,2.41c-1.13,2.09-2,3.91-2.75,5.46s-1.27,2.93-1.69,4.14a28.32,28.32,0,0,0-1,3.38c-.23,1.05-.43,2.08-.59,3.09a.37.37,0,0,1-.05.17.35.35,0,0,0,0,.17,3.23,3.23,0,0,1-.42,1.27c-.17.22-.65.28-1.44.17a9.13,9.13,0,0,1-2.37-.55,26.35,26.35,0,0,1-2.54-1.1,21.16,21.16,0,0,1-2.32-1.36A15.42,15.42,0,0,1,444,56a3.13,3.13,0,0,1-.77-2.53,24.85,24.85,0,0,1,.85-5.71c.56-2.29,1.18-4.47,1.86-6.56s1.3-3.86,1.86-5.33a13.1,13.1,0,0,1,.93-2.19,5.52,5.52,0,0,1,.09-.72,6.83,6.83,0,0,1,.29-1.19c.14-.42.27-.79.38-1.1s.23-.46.34-.46.34-.17.34-.51a4,4,0,0,1,.55-1.48c.37-.7.72-1.37,1.06-2l.67-1.35a2.49,2.49,0,0,1,2.37-1.18,9.18,9.18,0,0,1,3.13.71,22.49,22.49,0,0,1,3.64,1.82.71.71,0,0,0,.42.26,11.53,11.53,0,0,1,1.14.8,1.49,1.49,0,0,1,.47,1.23.57.57,0,0,1-.17.42,5.85,5.85,0,0,0-.47,1c-.2.48-.41,1-.63,1.61s-.45,1.21-.68,1.86-.42,1.2-.59,1.65l.17.08a28.26,28.26,0,0,1,2.62-3.76c1-1.16,1.9-2.21,2.83-3.17a27.38,27.38,0,0,1,2.67-2.45c.84-.68,1.52-1.19,2-1.53a3.41,3.41,0,0,1,2.75.17,11.47,11.47,0,0,1,3.13,1.95,11.05,11.05,0,0,1,2.41,2.92,4.4,4.4,0,0,1,.59,3.17v-.09c-.17.28-.33.55-.47.81a3.28,3.28,0,0,0-.29.63,1.33,1.33,0,0,0-.3.42.61.61,0,0,1-.38.34c-.17.4-.06.54.34.42-.12.12-.2.17-.25.17s-.26.14-.26.43a.57.57,0,0,1,0,.25.35.35,0,0,0,0,.17c-.12.11-.2.14-.26.08h.09c-.06-.05-.14,0-.26.13a1.91,1.91,0,0,0-.29.59,6.88,6.88,0,0,0-.21.72,2.62,2.62,0,0,0-.09.42c0,.29-.11.4-.34.34l-.17.85-.33,1.35-.34,1a.93.93,0,0,0-.68-.26.53.53,0,0,0-.13.26A.34.34,0,0,0,475.69,41.78Zm-27-3.21a.51.51,0,0,0,.17-.59q-.09-.42-.42-.42c-.12,0-.33.33-.64,1a10,10,0,0,0-.63,1.69A2.72,2.72,0,0,1,447,41a1.61,1.61,0,0,0-.17.43,2.83,2.83,0,0,0-.17.84c0,.17-.06.26-.17.26a.61.61,0,0,0-.34.12q-.17.13,0,.3a1.78,1.78,0,0,1-.08.89q-.16.72-.42,1.65l-.34,1.18-.59,2.45c-.34,2.26-.34,3.61,0,4.06s.52.72.55.64a4.77,4.77,0,0,0-.21-1.15c-.17-.39-.12-.67.16-.84a1.41,1.41,0,0,0,.26-.76c.05-.4.2-1.41.42-3.05.06-.28.1-.55.13-.8a1,1,0,0,0-.05-.55,1.39,1.39,0,0,1,.17-.85c.29-.11.43-.5.43-1.18a6.79,6.79,0,0,1,.29-1.23c.14-.42.38-1,.72-1.81a1.61,1.61,0,0,0,.17-.43l.34-.67c-.06,0-.17-.09-.34-.26a2.06,2.06,0,0,0,.21-.21c.09-.08.1-.13,0-.13.23,0,.34-.22.34-.67a1.61,1.61,0,0,1,.17-.43.58.58,0,0,0,.09-.25Zm-3.3,10.66c-.22.22-.25-.06-.08-.85.17.34.2.59.08.76Zm.17-1c.12-.34.2-.6.26-.8s.08-.07.08.38a.71.71,0,0,1-.17.51Zm0,.43c.17-.17.27-.24.3-.22s0,.19-.13.47Zm2,9.72c.4.28.62.41.68.38s0-.24-.17-.63a.7.7,0,0,0-.51-.17Q447.19,57.94,447.61,58.36Zm5.84-31.71c.22-.57.29-.82.21-.77a3.39,3.39,0,0,0-.55.77c-.23.22-.34.39-.34.5v-.08c-.11-.11-.21-.1-.29,0a1,1,0,0,0-.13.55,1.07,1.07,0,0,1-.13.51.64.64,0,0,1-.38.34,1.17,1.17,0,0,0-.21.33,1.07,1.07,0,0,0-.13.51,1.58,1.58,0,0,1-.08.59.44.44,0,0,1,0,.22.15.15,0,0,0-.05.12c0,.23-.08.26-.25.09h.08c-.11-.12-.21-.13-.29-.05s-.1.24,0,.47a2.17,2.17,0,0,1-.6,1.61,4.29,4.29,0,0,0-.33.38.25.25,0,0,0,0,.38c.11.11.05.28-.17.51a6.86,6.86,0,0,0-.34.76,1.75,1.75,0,0,0-.17.59l-.59,1.27-.51.93q0,.59.93,0a3.43,3.43,0,0,0,.34-.76.8.8,0,0,1,.42-.51,1.55,1.55,0,0,0,.17-.68c-.11-.22,0-.45.25-.67a1.7,1.7,0,0,0,.26-1,1.29,1.29,0,0,1,.42-.93.76.76,0,0,0,.21-.38,1.42,1.42,0,0,1,.13-.38,1.29,1.29,0,0,0,.34-.93A2,2,0,0,1,452,30h-.08c.22-.17.28-.31.16-.42.29-.12.43-.26.43-.43a1.38,1.38,0,0,1,.17-.42.88.88,0,0,1,0-.34.33.33,0,0,0,0-.17l.17-.17c.06,0,.08-.17.08-.33a.17.17,0,0,1,.05-.13.22.22,0,0,0,0-.13,1.23,1.23,0,0,1,.17-.51Zm-2.62,26.47q.42-.25,0-1v.09c-.23-.45-.36-.67-.38-.64a4.29,4.29,0,0,0-.05,1C450.4,53.37,450.54,53.57,450.83,53.12Zm1,4.9c.28.23.48.3.59.21s0-.23-.25-.46-.66-.41-.8-.38a.85.85,0,0,0-.47.38l1,.25Zm-.59,1.44c.17-.05.25-.31.25-.76s-.08-.51-.25-.51-.26.23-.26.68S451.08,59.46,451.25,59.46Zm5.16-12.35c.17,0,.19-.28.08-.67-.34.79-.34,1,0,.67Zm.17,2.29q.33,0,.33-.51c0-.28-.08-.42-.25-.42s-.08,0-.08.08l-.17.34C456.29,49.23,456.35,49.4,456.58,49.4Zm1-1.44a1.69,1.69,0,0,0,.34-.93c-.34.22-.54.31-.59.25s-.26.17-.26.51C457.08,48.52,457.25,48.58,457.59,48Zm.85-1.61c.05-.28,0-.41-.26-.38a.64.64,0,0,0-.5.47c-.12.33,0,.45.25.33S458.27,46.63,458.44,46.35Zm.42-1c.11-.34,0-.45-.25-.34a2.39,2.39,0,0,0-.34.21.36.36,0,0,0-.17.3c-.23.33-.14.45.25.33a1.36,1.36,0,0,0,.34-.21A.36.36,0,0,0,458.86,45.34Zm-.59-5.75c-.11.33-.07.43.13.29a1.47,1.47,0,0,0,.46-.8l.42-1.14c.23-.6.47-1.24.72-1.95s.51-1.38.76-2l.55-1.39c0-.23-.05-.34-.17-.34s-.33.11-.33.34v.16c-.17,0-.26.12-.26.34l-.25.76a.22.22,0,0,1,0,.13.17.17,0,0,0-.05.13V34a1,1,0,0,0-.21.3c0,.08,0,.13.13.13s-.06.14-.17.25-.28.4-.17.51a.07.07,0,0,1-.08.08c-.29,0-.34.14-.17.42,0,.17,0,.26-.09.26A2.8,2.8,0,0,0,459,37.3l-.51,1.52a.17.17,0,0,1,0,.13.17.17,0,0,0,0,.13A1.15,1.15,0,0,0,458.27,39.59Zm2.62,2.19a.2.2,0,0,0,.21-.12c0-.09-.07-.18-.29-.3s-.51,0-.51.26a.22.22,0,0,1-.09.16A2.46,2.46,0,0,0,460,42a1.2,1.2,0,0,1-.17.21l-.25.42c-.45.56-.62,1-.51,1.18a.47.47,0,0,1-.16.34h-.09c-.45.29-.48.43-.08.43a1.41,1.41,0,0,0,.93-.51,2.19,2.19,0,0,0,.5-.93,1.16,1.16,0,0,1,.05-.38,1.23,1.23,0,0,0,0-.21c0-.17.11-.26.34-.26Zm.42-.59.09-.08c.22-.06.34-.17.34-.34h-.17a.33.33,0,0,1-.17,0,.38.38,0,0,0-.17,0q-.42,0-.42.33c0,.29.14.34.42.17Zm-.25-5.58c.62-.84.86-1.21.72-1.1s-.44.4-.89.85Zm.17-4.06a.9.9,0,0,0-.17.47c0,.14.06.21.17.21s.24-.16.38-.47.27-.6.38-.89l.34-.88c.11-.31.11-.52,0-.64s-.34-.11-.34.34a.71.71,0,0,1-.42.59c-.29.28-.34.51-.17.68a3,3,0,0,1-.17.68Zm.51,8.8c.33,0,.45-.14.33-.43a1.09,1.09,0,0,0-.5.09Zm.42-.76c.17,0,.25-.06.25-.17s0-.17,0-.17,0,0,0-.09c-.4-.11-.59-.08-.59.09S461.88,39.59,462.16,39.59Zm6.17-.77q-.07,0-.21.6c-.08.39-.17.83-.25,1.31s-.16.93-.21,1.35a1.65,1.65,0,0,0,0,.8c.17.17.33-.11.5-.84l.34-1.95C468.61,39.25,468.56,38.82,468.33,38.82Zm.26-.17c-.12.06-.2.06-.26,0,.12.46.26.46.43,0Zm.17,0a.32.32,0,0,1,0-.16.59.59,0,0,0,0-.26A.93.93,0,0,0,468.76,38.65Zm.5-1.86a.57.57,0,0,0-.17-.42c-.17-.11-.26-.11-.29,0a.45.45,0,0,0,0,.34C468.73,37.16,468.87,37.19,469.26,36.79Zm8.21-2.7c-.06,0-.19.2-.38.59s-.4.83-.6,1.31-.38.93-.55,1.35a3.71,3.71,0,0,0-.25.81c.23.45.48.25.76-.59l.76-2.12a7.45,7.45,0,0,0,.26-.93Q477.54,34.09,477.47,34.09Zm-1.27,7.78c.05,0,.08,0,.08-.09a.68.68,0,0,1,.09-.33c.34.33.31.5-.09.5Zm1.94-8.63c.17-.45.17-.7,0-.76s-.31.14-.42.59-.06.85,0,.85a.49.49,0,0,0,.42-.68Zm.68-1.77c-.23-.06-.34,0-.34.17-.17.28-.22.48-.17.59s.26,0,.6-.26a.42.42,0,0,0,.08-.29C479,31.54,478.93,31.47,478.82,31.47Z" transform="translate(-6.73 -3.54)"/><path class="cls-1" d="M479.41,39.16c-.11,0-.05-.19.17-.59v.08a2,2,0,0,0,.42-1.18c-.17-.68-.31-.59-.42.26v.5c-.06,0-.07-.15,0-.46a8.33,8.33,0,0,1,.21-1.14.33.33,0,0,1,0-.17.38.38,0,0,0,0-.17c.29-1,.53-2,.72-2.84s.36-1.62.47-2.24a5,5,0,0,1,.25-1.18l.43-.93a6.22,6.22,0,0,1,.21-.59l.21-.6.5-1.52c.06-.28.1-.42.13-.42H483c.23,0,.31-.11.26-.34s0-.22.25-.34a.73.73,0,0,1,.68,0c0-.28.15-.43.46-.46a.85.85,0,0,1,.72.21c-.11-.39-.08-.62.09-.68a6,6,0,0,1,1.26-.08,14.21,14.21,0,0,1,4.28,1,4.9,4.9,0,0,1,2.66,2,1,1,0,0,0-.17.34q-.09.25-.42.93l-.93,2.88q-1,3.89-1.48,6.17c-.31,1.52-.52,2.68-.64,3.47s-.11,1-.17.93v.08c-.11-.22-.21-.32-.29-.29s-.13.27-.13.72c-.06.73.09,1,.42.84s.51-.22.51-.51.26-.47.76-.76a.8.8,0,0,0,.26-.59c0-.28-.2-.22-.6.17l-.16.25a5.27,5.27,0,0,1,.38-1c.19-.42.4-.86.63-1.31s.42-.85.59-1.18.28-.51.34-.51.17-.11.17-.34c.28-.17.37-.37.25-.59,0-.06.09-.17.26-.34s.36-.51.25-.68v.09a.1.1,0,0,1,0-.17c.23,0,.31-.11.25-.34s-.11-.17,0-.17.46-.39.85-1.18a3.1,3.1,0,0,1,.42-.76c.17-.23.28-.34.34-.34a3.45,3.45,0,0,1,.38-.85c.2-.34.35-.51.47-.51.11.17.36.06.76-.33h-.59a1.54,1.54,0,0,1,.29-.51c.2-.28.45-.61.76-1l.93-1.1c.31-.37.58-.69.81-1a1.77,1.77,0,0,0,.34-.42.76.76,0,0,0,.08-.25c-.06,0,.07-.16.38-.47l.64-.63c.22-.17.45-.35.67-.55s.34-.33.34-.38h.17a1.4,1.4,0,0,1,.38-.59,2.19,2.19,0,0,1,.72-.34,3.36,3.36,0,0,1,2.37.55A12.29,12.29,0,0,1,508,26.9a9.63,9.63,0,0,1,2,2.66,1.81,1.81,0,0,1-.17,2.24,4.41,4.41,0,0,0-1.27.93l-1,1h-.17a1.78,1.78,0,0,1-.34.51,8.56,8.56,0,0,1-.85.89c-.34.31-.65.57-.93.8s-.45.31-.51.25a1.69,1.69,0,0,1-.08.93,4.47,4.47,0,0,0-.38.47c-.14.2-.27.38-.38.55a4.33,4.33,0,0,1-.76,1.1,1.14,1.14,0,0,0-.51.84.22.22,0,0,1-.09.17c-.16,0-.39.26-.67.76s-.4.85-.34,1l0,.08a.14.14,0,0,0-.12-.08c-.23-.11-.34,0-.34.25s-.06.26-.17.26c-.28,0-.34.14-.17.42,0,.17-.06.2-.17.08l-1.52,2.37c-.4.62-.78,1.18-1.14,1.69a4,4,0,0,1-.72.85l-.43.93-.17.34a2.88,2.88,0,0,1-.67,1.6,2.55,2.55,0,0,1-.3.89c-.2.43-.35.64-.46.64s-.26.14-.26.42l-.25,1c-.17-.16-.31,0-.42.6a.15.15,0,0,1-.05.12.22.22,0,0,0,0,.13l-.34.93a4,4,0,0,0-.46.68,4.69,4.69,0,0,0-.47,1.18,2.84,2.84,0,0,0-.08.59.94.94,0,0,1-.09.43,1.52,1.52,0,0,0-.08.42c-.23,0-.34.08-.34.25a.89.89,0,0,1-.13.85c-.19.34-.35.51-.46.51-.45,0-1.11,0-2-.13a23.8,23.8,0,0,1-2.83-.47,18,18,0,0,1-3.05-1,7.6,7.6,0,0,1-2.53-1.65,2.58,2.58,0,0,1-.76-1.69c-.06-.68,0-1.07.33-1.18s.06-.26-.5-.26c-.29,0-.37-.14-.26-.42v-.85a.65.65,0,0,0-.17-.5,1.19,1.19,0,0,1-.17-.76,3.39,3.39,0,0,0,0-.64,1.53,1.53,0,0,1,0-.3c-.11,0-.18-.22-.21-.5a3.31,3.31,0,0,1,0-.93c0-1.07-.11-1.5-.34-1.27V47.7a3,3,0,0,1,.09-.76c.05-1.12.08-1.87.08-2.24a1.94,1.94,0,0,0-.17-.89c0-.16,0-.5,0-1s.08-1,.13-1.44a7.7,7.7,0,0,0,.17-1.44A1.19,1.19,0,0,0,479.41,39.16ZM479.33,43c0,.45.08.59.25.42h-.08a.37.37,0,0,0,.21-.25,1.32,1.32,0,0,0,0-.34C479.58,42.46,479.44,42.52,479.33,43Zm3.89,5c.17.51.29.72.38.63a1.76,1.76,0,0,0,.12-.89,3.77,3.77,0,0,1-.08-1.56c.06-.82.14-1.7.25-2.66V43a22.89,22.89,0,0,0,.17-2.37c0-.51-.05-.65-.17-.42a4.11,4.11,0,0,0-.29,1.39c-.09.76-.17,1.6-.26,2.5s-.14,1.73-.17,2.49A5.86,5.86,0,0,0,483.22,48Zm1-9.64a.82.82,0,0,0-.34.93c.12.34.22.45.3.34a3.5,3.5,0,0,0,.3-.85,2,2,0,0,0,.17-.63C484.66,38,484.51,38,484.23,38.32Zm0-1.78a1.19,1.19,0,0,0-.34.85c0,.45.12.45.34,0,.23.28.4.36.51.25a.42.42,0,0,0,0-.34,4.7,4.7,0,0,0-.12-.51C484.66,36.23,484.51,36.15,484.23,36.54ZM485,57.85a.15.15,0,0,1-.12,0,.18.18,0,0,0-.13,0,1.41,1.41,0,0,0-.59-.17,1,1,0,0,0,.42.55,1.09,1.09,0,0,0,.42.13Zm-.33-23.51a4.6,4.6,0,0,0-.26.85c-.06.28,0,.45.09.5v-.08A.5.5,0,0,0,485,36c.2,0,.3-.11.3-.34,0,0-.09-.17-.26-.34a3.84,3.84,0,0,1,.13-.76,11.14,11.14,0,0,1,.34-1.1c.14-.39.27-.76.38-1.1a1.62,1.62,0,0,1,.34-.67c.17-.4.08-.6-.26-.6s-.39.15-.5.43a9.17,9.17,0,0,1-.17,1c-.06.23-.14.52-.26.89S484.77,34.06,484.66,34.34Zm1.18-4.23c-.4,1-.31,1.16.25.6l.59-1.19c.23-.73.24-1,.05-.89A4.61,4.61,0,0,0,485.84,30.11Zm1.1-2.28a1.38,1.38,0,0,0-.42.51c0,.22.16.25.5.08a.71.71,0,0,0,.26-.42c0-.4-.14-.45-.43-.17Zm.34,18.52a.26.26,0,0,0-.09.17v.34a.46.46,0,0,0,0,.42c.09.12.16.17.22.17s.25-.2.25-.59-.23-.59-.34-.59Zm.25,3a2.3,2.3,0,0,0,.09-1c0-.12-.05-.13-.13,0a.64.64,0,0,0-.13.47,3.53,3.53,0,0,0,0,.93C487.35,49.82,487.42,49.71,487.53,49.31Zm.09-6.09c-.23,2-.23,3,0,3s.3-.42.42-1.27c0-.39.12-.88.21-1.48s.17-1.15.25-1.69.17-1,.26-1.35a1.75,1.75,0,0,1,.21-.64.69.69,0,0,0,.08-.42,3.23,3.23,0,0,0-.08-.68,4.26,4.26,0,0,1,0-.63c0-.2.1-.29.21-.29s.23-.4.34-1.19.22-1.28.34-1.82a3.13,3.13,0,0,1,.34-1,1,1,0,0,0,.08-.68c-.11-.23,0-.4.34-.51q.16-.16,0-.51c-.17-.17-.14-.25.08-.25s.34-.2.34-.59a7.72,7.72,0,0,1,.17-.76l.51-1.95c.22-.73.2-1-.09-.84-.22-.06-.33.11-.33.5a.26.26,0,0,0-.09.17v.09c0-.12-.11.17-.34.84-.45,1.19-.81,2.29-1.1,3.3s-.55,2.06-.8,3.13-.49,2.21-.72,3.43S487.84,41.64,487.62,43.22Zm2.19,4.91c-.16.39-.12.6.13.63a.81.81,0,0,0,.72-.38,1.21,1.21,0,0,0,.42-.84c0-.23-.14-.3-.42-.22A1.81,1.81,0,0,0,489.81,48.13Zm1.1-4.06c-.28-.28-.42-.2-.42.25s.17.51.51.34C491.17,44.49,491.14,44.29,490.91,44.07Zm.09-9.22c.11-.11.08-.34-.09-.68-.17.4-.22.64-.17.72S490.88,35,491,34.85Zm.08,11.33c-.11-.11-.21-.12-.29,0s-.07.27,0,.55l.17.51h.17a1.53,1.53,0,0,1,0-.3.6.6,0,0,1,.13-.3,1.1,1.1,0,0,0,0-.84,2,2,0,0,1-.17.38C491.11,46.23,491.08,46.24,491.08,46.18Zm-.34-15.39c0,.17.14.25.43.25l-.43.34A1,1,0,0,0,490.74,30.79Zm.51,12.35a.55.55,0,0,0-.34.51c0,.22.17.25.51.08a.57.57,0,0,0,.17-.42.28.28,0,0,0-.13-.26c-.08,0-.18,0-.29.09ZM491.51,31c0-.06-.12,0-.34.08C491.34,31.1,491.45,31.07,491.51,31Zm.33,8.79q-.42.26-.42.51c0,.4.23.31.68-.25Zm-.25,2.2a.73.73,0,0,0-.17.51c0,.45.06.66.17.64s.23-.27.34-.72-.09-.48-.26-.43Zm1,1.61a.52.52,0,0,0,.16-.38V42.8c-.11-.17-.26-.06-.46.34a3.79,3.79,0,0,0-.38,1,.74.74,0,0,0-.26.51c-.22.11-.28.31-.16.59a.8.8,0,0,0,.42.51c.17.06.2-.06.08-.34a1.88,1.88,0,0,1,.17-1A2.63,2.63,0,0,1,492.61,43.56Zm.16-4.31a.57.57,0,0,0-.16.42,1.28,1.28,0,0,0-.17.59c0,.12.05.14.17.09a1,1,0,0,0,.33-.51,2.77,2.77,0,0,0,.34-.85c0-.17-.06-.22-.17-.17a1.07,1.07,0,0,0-.34.51Zm.6-1.19q-.18.6-.09.72c.06.09.17,0,.34-.29h-.09a.41.41,0,0,0,.22-.3,2.9,2.9,0,0,0,0-.38C493.62,37.42,493.48,37.5,493.37,38.06Zm.67,1.86c-.17-.11-.34,0-.51.43C494.16,40.35,494.32,40.21,494,39.92Zm-.17-3c-.28.39-.25.59.09.59s.39-.25.51-.76c.11-.34.19-.51.25-.51s.31-.17.42-.51v.09c.23-.28.3-.44.21-.47a2,2,0,0,0-.8.38,1,1,0,0,0-.38.47,1.33,1.33,0,0,0-.13.38A.46.46,0,0,1,493.87,36.88Zm.26,1.86c.05.17.22.11.5-.17a1.13,1.13,0,0,0,.43-.76c0-.34-.2-.31-.59.08S494.07,38.57,494.13,38.74Zm1.69-5.07c-.79,1-.62,1.52.51,1.52a.73.73,0,0,1-.43-.64.78.78,0,0,1,.34-.63c.06-.06.1-.09.13-.09s0,0,0,.09c-.12.39-.06.54.17.42s.3-.34.25-.67a.56.56,0,0,1,.08-.64c.17-.25.31-.32.43-.21h-.09c.17.11.37,0,.59-.34a1,1,0,0,0,.17-.93c-.17-.28-.39-.28-.67,0a1,1,0,0,0-.34.68.19.19,0,0,1,0,.12.19.19,0,0,0-.05.13v.09q-.25,0-.84.93Zm.34,2.36c.28-.11.42-.19.42-.25s-.08-.14-.25-.25-.41-.12-.55-.17a.32.32,0,0,0-.38.08c.28.17.42.28.42.34C495.42,36.18,495.54,36.26,496.16,36Zm1.35-3.63c-.11.11-.17.11-.17,0s.14-.31.42-.43v.09c0,.06,0,.11-.12.17a.74.74,0,0,0-.21.17Zm.85-2a.65.65,0,0,0-.6.29c-.11.2,0,.36.26.47.11.11.21.12.29,0a.38.38,0,0,0,.13-.3c0-.11,0-.16.09-.16s.08.14.08.42l-.17.59h.17l.25-.59v.08c.23-.34.37-.5.43-.5a.3.3,0,0,0,.33-.34c0-.17,0-.26-.08-.26a.58.58,0,0,0-.25.09A2.18,2.18,0,0,1,498.36,30.37Zm1.18-1.53c-.45.23-.39.34.17.34.39,0,.56-.08.51-.25C499.82,28.82,499.6,28.79,499.54,28.84Zm.76-1.09c-.28.11-.39.19-.34.25s.23.08.51.08.37-.14.25-.42A.9.9,0,0,0,500.3,27.75Z" transform="translate(-6.73 -3.54)"/><path class="cls-1" d="M504.53,53.46a9.49,9.49,0,0,1-.25-2.54,28,28,0,0,1,.17-3.13A16.94,16.94,0,0,1,505,45c.29-1.19.57-2.27.85-3.26a21.79,21.79,0,0,1,1.06-2.92,22.43,22.43,0,0,1,1.56-2.91c.62-1,1.35-2.1,2.2-3.34,0-.06.05-.14.17-.26a6.72,6.72,0,0,1,1.1-1.35l1.18-1.44a10.63,10.63,0,0,1,.85-.93,13.57,13.57,0,0,1,1.35-1.18q.76-.6,1.56-1.14a8.82,8.82,0,0,1,1.4-.81,10.57,10.57,0,0,1,2.54-1,11.28,11.28,0,0,1,2.54-.26,12.55,12.55,0,0,1,3.8.64,6,6,0,0,1,3.38,3.25,9.83,9.83,0,0,0,.51-1.14c.11-.31.23-.6.34-.89a2,2,0,0,1,.42-.93,3.74,3.74,0,0,1,.76-.72,1.58,1.58,0,0,1,1-.12,6.48,6.48,0,0,1,1.65.34c.76.22,1.53.49,2.32.8a24.38,24.38,0,0,1,2.24,1,4.69,4.69,0,0,1,1.4,1,3.31,3.31,0,0,1,1.1,2.36,11.28,11.28,0,0,1-.85,3.51c-.56,1.56-1.49,3.88-2.79,7-.33.79-.65,1.58-.93,2.37s-.53,1.54-.76,2.24-.41,1.3-.55,1.78-.24.8-.29,1L536,48h.17l.51-.51a10.7,10.7,0,0,1,1-.85l1.06-.8a5.24,5.24,0,0,0,.67-.55c.79-.62,1.47-1.18,2-1.69s1.24-1.15,2-1.94c.68-.57,1.2-1,1.57-1.36a8.51,8.51,0,0,1,.93-.76,2.87,2.87,0,0,1,.63-.34,1.81,1.81,0,0,1,.51-.08,2.06,2.06,0,0,1,1.27.29,1.19,1.19,0,0,1,.25,1.06,2.59,2.59,0,0,1-.17.85c-.11.34-.24.67-.38,1a8.38,8.38,0,0,1-.42.89,4,4,0,0,1-.29.47h.08l-.42.42a3.88,3.88,0,0,0-.43.51,10.47,10.47,0,0,1-.76,1.22,9,9,0,0,1-.93,1.14,2.59,2.59,0,0,0-.63.72,1.42,1.42,0,0,0-.21.55c0,.12-.12.23-.34.34a1.29,1.29,0,0,0-.34.25.52.52,0,0,0-.17.34c0,.17-.06.26-.17.26-.28,0-.42.22-.42.67a.52.52,0,0,1-.13.34,1.5,1.5,0,0,1-.21.25h.08c-.28.17-.33.34-.16.51a.08.08,0,0,1-.09.09c-.22,0-.37.17-.42.5,0,.17-.06.26-.17.26s-.31.14-.42.42-.09.42-.26.25a.31.31,0,0,0-.34.34c0,.17-.05.26-.17.26s-.25.17-.08.5c0,.06,0,.09-.08.09A.25.25,0,0,0,540,54c-.4.06-.54.23-.43.51s-.25.52-.76,1.06-1.07,1.1-1.69,1.69-1.24,1.16-1.86,1.69A11.57,11.57,0,0,1,533.88,60a4.51,4.51,0,0,1-3.26.29,8.3,8.3,0,0,1-3.09-1.65,13,13,0,0,1-2.49-2.7,8.8,8.8,0,0,1-1.4-3,7.71,7.71,0,0,1-.25-3.47,5,5,0,0,1,0-.72,3.65,3.65,0,0,0,0-.55v-.59h-.16a.24.24,0,0,0-.09.17V48c-.06.45-.16,1.08-.3,1.9a7.33,7.33,0,0,1-.88,2.41,25.82,25.82,0,0,1-3,5.37,20.38,20.38,0,0,1-2,2.24,3.87,3.87,0,0,1-2.28.51,10,10,0,0,1-2.79-.42,14.06,14.06,0,0,1-4.57-2.88A10.6,10.6,0,0,1,504.53,53.46Zm3-6.94a.3.3,0,0,0-.34.34c0,.23.09.34.26.34l.16-.17C507.74,46.69,507.71,46.52,507.49,46.52Zm.34-1.1c-.29-.28-.42-.25-.42.09a.6.6,0,0,0,.21.5.25.25,0,0,0,.38,0C508.11,45.9,508.05,45.7,507.83,45.42Zm.34,8a.79.79,0,0,0,.08-.26c0-.05-.08-.08-.25-.08a.3.3,0,0,0-.34.34c0,.22.08.33.25.33l.26-.25Zm.08-9.73a.3.3,0,0,0-.34.34c0,.22.06.34.17.34s.23-.12.34-.34v.08c.11-.11.14-.21.08-.29A.27.27,0,0,0,508.25,43.73Zm7.87,2.79a8.62,8.62,0,0,0-.76,2.33c-.12.7,0,.88.25.55a8.51,8.51,0,0,0,1-2.29c.23-.62.41-1.12.55-1.52s.19-.62.13-.68a.22.22,0,0,0-.34,0A10.89,10.89,0,0,0,516.12,46.52Zm.59-2.62a.22.22,0,0,1,0,.13.17.17,0,0,0,0,.12c0,.23.06.31.17.26a.94.94,0,0,0,.34-.51V44c.28-.39.31-.59.09-.59s-.34.14-.51.42Zm1.1,5.83a.67.67,0,0,0,.25-.46c0-.14-.06-.21-.17-.21l-.51.51a.4.4,0,0,1-.08.21.35.35,0,0,0-.08.21V49.9c-.29.29-.31.43-.09.43S517.58,50.13,517.81,49.73ZM517.55,44a.56.56,0,0,0-.33.51c0,.28,0,.41.16.38s.23-.21.34-.55S517.78,43.87,517.55,44Zm.09-.59a2.4,2.4,0,0,0-.3.68,3.86,3.86,0,0,0,.55-.51c.23-.22.28-.42.17-.59S517.81,43,517.64,43.39Zm.93,1.52-.42,1.15a2.53,2.53,0,0,0-.17.54c0,.12.11.09.34-.08s.5-.39.84-.68.69-.6,1.06-1,.69-.72,1-1.06l1.27-1.69.76-.84c.23-.34.51-.82.85-1.44.11-.11.22-.24.34-.38a.45.45,0,0,1,.33-.21,2.52,2.52,0,0,1,.68-1.27c.51-.62.68-1,.51-1.1.05,0,.11-.07.17-.21a1,1,0,0,1,.25-.38c.68-.85.85-1.3.51-1.36s-1.13.37-2.37,1.27a21.93,21.93,0,0,0-3.26,3.85A24.29,24.29,0,0,0,518.57,44.91Zm-.25-3.29c-.23-.46-.34-.4-.34.16s.11.65.34.43S518.43,41.9,518.32,41.62ZM523,28.25c-.46.12-.68.23-.68.34s.22.17.68.17a.91.91,0,0,0,.84-.42c.11-.23.1-.35,0-.38A1.52,1.52,0,0,0,523,28.25ZM523.81,48c.06-.23,0-.34-.17-.34s-.45.11-.5.34v-.09c-.12.12-.16.22-.13.3s.13.13.3.13a.74.74,0,0,0,.5-.26Zm.43-1c.11-.39,0-.59-.17-.59l-.34.59v-.08c-.34.45-.31.68.08.68C524,47.54,524.12,47.34,524.24,46.94Zm1.6,3.64c-.34,0-.36.25-.08.76v-.08c.11.5.28.65.51.42a2,2,0,0,0,.12-.34.2.2,0,0,0-.12-.25h-.17C526.27,50.75,526.18,50.58,525.84,50.58Zm-.08,3.13a1.1,1.1,0,0,0,.38.47c.14.08.27,0,.38-.13s-.11-.28-.34-.51-.45-.32-.51-.3S525.64,53.43,525.76,53.71ZM526.35,32a.76.76,0,0,0-.25-.08c-.06,0-.09.08-.09.25a.3.3,0,0,0,.34.34c.22,0,.34-.08.34-.25l-.26-.26ZM526,47c0,.17.16.25.47.25a.63.63,0,0,0,.63-.34c0-.11,0-.38,0-.8a8.92,8.92,0,0,1,.22-1.4,7.38,7.38,0,0,0,.16-1.39c0-.37,0-.49-.16-.38l-.34.68L526.6,45a3.34,3.34,0,0,1,0,.63c0,.14.07.27.3.38h-.17c.11.06.13.13,0,.22a1.14,1.14,0,0,1-.3.21Zm.68,1c.22-.45.11-.56-.34-.34a1.28,1.28,0,0,0-.17.51,7.72,7.72,0,0,0-.13.93c0,.34,0,.64,0,.89s0,.38.09.38.14-.08.25-.25a1.24,1.24,0,0,0,.17-.68A5.57,5.57,0,0,1,526.69,48Zm1.18-5.24c.17-.17.14-.45-.08-.85C527.62,42.74,527.65,43,527.87,42.8Zm.26-2c-.12-.11-.22-.13-.3,0a.37.37,0,0,0-.13.29c0,.23.09.34.26.34a.54.54,0,0,0,.42-.17.26.26,0,0,0-.09-.17l-.25-.25Zm1-1.78c-.06,0-.08,0-.08,0s0,0-.09,0c-.22.11-.34.22-.34.34,0,.28,0,.43,0,.46s.23-.18.46-.63Zm1.27-10.57c-.11.12-.2.17-.25.17a1,1,0,0,0-.34,1ZM531,49.23s-.14.2-.25.59-.23.84-.34,1.35a14.57,14.57,0,0,0-.25,1.44c-.06.45-.09.73-.09.85.34.56.56.33.68-.68l.25-2.12C531.11,49.71,531.11,49.23,531,49.23Zm.51-.85c0-.45,0-.7-.17-.76s-.28.14-.34.59.06.85.17.85a.39.39,0,0,0,.3-.17A.64.64,0,0,0,531.51,48.38Zm.25-1.78c-.22-.05-.34,0-.34.26,0,.56.12.65.51.25.06,0,.07-.15,0-.29S531.87,46.6,531.76,46.6Zm2.12-6.93c-.17,0-.27,0-.3.13s0,.18.13.29V40c0,.22.17.34.34.34s.17-.12.17-.34A.3.3,0,0,0,533.88,39.67Zm.08,9.22c-.22,0-.34,0-.34.08,0,.29.12.43.34.43s.34-.09.34-.26-.11-.22-.34-.34Zm3.81,6a.69.69,0,0,0-.17.51c0,.28,0,.41.17.38s.22-.21.34-.55,0-.45-.26-.34Zm.93-.93c-.34.29-.51.48-.51.6,0,.28.22.19.68-.26Zm1.1-1.27a3,3,0,0,0-.51.6c-.06.11.06.11.34,0a1.05,1.05,0,0,0,.76-.68v.08c.62-.78.89-1.17.8-1.14A14.82,14.82,0,0,0,539.8,52.69ZM541,28.34a1,1,0,0,0-.42-.55c-.17-.09-.28,0-.34.12a1.46,1.46,0,0,0,.38.64c.25.31.44.46.55.46v-.25a1.4,1.4,0,0,0-.17-.51Z" transform="translate(-6.73 -3.54)"/></svg>