<svg id="Capa_1" data-name="Capa 1" xmlns="http://www.w3.org/2000/svg" viewBox="0 0 218.62 115.68"><defs><style>.cls-1{fill:#c95919;}</style></defs><path class="cls-1" d="M3.26,117.44c1-4,6.61-7.94,10.08-9.92l4.13-2.31C31.35,97.44,45.9,92.65,60.6,88.52a16.77,16.77,0,0,0,2.15-4.63c1.32-5.62-1.16-9.42-5.29-12.06A38.72,38.72,0,0,0,50,68.52c-2.81-1-5.79-1.82-8.76-2.64-11.9-3.47-24.79-7.44-20.66-18.35l.5-1.32C29.2,24.4,69,3.58,89.52,3.58A31.71,31.71,0,0,1,97,4.73c3,.83,5.12,2,4.63,3.31a1.71,1.71,0,0,1-.83,1c-.66.33-2.15-.33-2.65-.66l-1.65-.83a24.66,24.66,0,0,0-8.59-1.32C68,6.22,30.36,24.07,23.26,46.38c-2,8.76,6.44,12.72,12.39,15,5,2,11.9,3.3,17.85,5.61,5.78,2.32,10.08,5.79,11.56,11.74a10.55,10.55,0,0,1,.17,5.12c-.17.5-.33,1.32-.5,1.82l-.33.66a1.26,1.26,0,0,1-.33.83l-.16.49.82-.33c1.49-.66,14-3.64,14.55-3.64.82,0,1.15.5,1,1,0,.82-1.49,1.48-2.15,1.65l-4.63,1.16c-4,1-7.93,1.81-11.9,3C51,102.07,21.77,119.25,7.89,119.25H7.06c-.49,0-1-.16-1.32-.16h-.5a3.13,3.13,0,0,1-1.15-.33A1,1,0,0,1,3.26,117.44Zm2.64-.83,2.32.5c11.9,0,38.83-15.87,48.58-24.46l1.49-1.32-1.82.49a173.12,173.12,0,0,0-40.65,16.36C11.36,110.66,7.06,114,5.9,116.61Z" transform="translate(-3.22 -3.58)"/><path class="cls-1" d="M73.33,92.15c1.32-5.78,7.6-10.41,13.22-10.74h1a.92.92,0,0,1,.83.5l.33.16a1.29,1.29,0,0,1,.49,1.16v.49c.83.5.83,1.82.5,3-.5,2.31-1.82,4.46-2.32,6.61s-.16,4.63,2.65,4.63c4.79,0,14-7.44,16.52-11.24l1.33-2a3.12,3.12,0,0,1,1.15-1l.17-.16c.33-.17,1-.33,1.15-.17s.17.5.17,1a2.42,2.42,0,0,1-.33,1l-1.49,2c-4.13,5.29-13,12.73-19.17,12.73-3.14,0-4.79-2.32-4.79-5.29a5.14,5.14,0,0,1,.5-1.49l2.31-6.45L86.22,88c-1.49,1.32-3.47,3.14-5.46,4.79-2.14,1.66-4.13,3-5.78,3C73.16,95.79,72.83,94,73.33,92.15Zm2.31,1.32a17.19,17.19,0,0,0,6-3.8l2.48-2.31,2.48-3.64c-3.64,0-10.25,4.14-11.07,8.1Z" transform="translate(-3.22 -3.58)"/><path class="cls-1" d="M96.13,105.21a10.61,10.61,0,0,1,2-1.49l3.31-2.31c4.13-2.81,7.27-6.28,10.58-9.92,1.65-1.82,3.14-3.8,5.12-5.78l.82-.83h-1l-2.64.17h-2l-1.66-.17a5.76,5.76,0,0,1-1.65-.33c-.83-.33-1.16-.83-1-1.49a1.51,1.51,0,0,1,1-1h1.32l1.16.33,3,.33a49.46,49.46,0,0,0,6.78-.66,9.46,9.46,0,0,1,3.31-1.81c.33,0,.82.49,1,1a1.18,1.18,0,0,1-.5,1.32,7.7,7.7,0,0,1-1.49,1l-1.65.5-2.31,2.8a141,141,0,0,1-17.52,16.86l-1,.83h1.16l2.64.16c10.91,0,19-5.78,25.12-11.24,3-2.64,5.29-5.61,7.27-7.6l1.82-1.81c.33-.34.82-.67,1.16-1s1-.49,1.15-.16a.94.94,0,0,1,.33,1.16c-.49,2-10.57,12.55-12.89,14.21C118.94,105.21,115,107,102.74,107c-2.15,0-5.12.66-6.44.66a1.2,1.2,0,0,1-1.16-.66C95,106.53,95.47,105.87,96.13,105.21Z" transform="translate(-3.22 -3.58)"/><path class="cls-1" d="M133.81,93.64c.17-1.49,3-6.94,4.13-8.59l2-3c.5-.82,1.66-2.48,2.81-2.48a.9.9,0,0,1,.67.33c.16.34-.34,1.16-.5,1.49l-2.81,4.3c-1.82,2.64-4,6-4.46,8.59-.5,2.48.16,4.63,2.64,5.29,5.62-3.14,8.43-9.75,9.75-15-1.32-1.16-3.47-3.47-3-5.29.33-1.15,2.81-2.48,4.29-2.48,1,0,1.49.67,1.49,2a15.75,15.75,0,0,1-.49,4.13A13.42,13.42,0,0,0,156,84.22a19.31,19.31,0,0,0,4.3-.66l1.32-.33a2.72,2.72,0,0,1,2,0,.89.89,0,0,1,.49.83c-.33,1.81-6.44,2.64-8.1,2.64a18.75,18.75,0,0,1-6.28-.83,61.9,61.9,0,0,1-3.47,8.6c-1.81,3.3-5.94,7.27-9.42,7.27C133.15,101.74,133.31,97,133.81,93.64Zm8.1-22a1.85,1.85,0,0,1,1.15-1.49c3.64-1.48,7.28-2.47,10.25-5.45.17-.16.66-.66,1-.66s.83-.17,1,0c.33.16.33.5.33.83-.49,2.31-10.41,7.76-12.89,7.76C142.07,72.65,141.91,72.16,141.91,71.66Z" transform="translate(-3.22 -3.58)"/><path class="cls-1" d="M152.65,93A23.55,23.55,0,0,1,155.79,86l1.48-2.15a5.38,5.38,0,0,1,1.16-1.49,2.58,2.58,0,0,1,1-.49.78.78,0,0,1,.83.82,3,3,0,0,1-.33,1.16c-.16.33-.5.66-.66,1l-.33.33c-2.32,2.32-3,6-4.13,8.76l-.5,1.16,1.16-.5c2.15-.82,4-2.64,5.95-4.13,2.15-1.49,4.13-3.3,6.28-4.79,4-3,8.59-5.29,12.56-5.45.16-.17.49,0,.66.16a1.31,1.31,0,0,1,.33.83v.82a5,5,0,0,1-.17,1.49l-.33,1.32c-2,8.1-3.3,17,9.59,17,8.92,0,25.77-7.27,29.08-15l-.16-.66a1.76,1.76,0,0,1,.16-1.32c.33-.33.5-.49.83-.49,1.48,0,1.81,1.81,1.48,3.47-2.14,9.25-22.14,15.69-31.39,15.69-14.88,0-14.22-10.41-11.24-21-4.79.16-14.54,7.27-18.67,10.74a37.11,37.11,0,0,1-3.15,2.31c-1.65,1.16-4,1.82-4.46.83A4.89,4.89,0,0,1,152.65,93Z" transform="translate(-3.22 -3.58)"/></svg>